<svg width="256" height="256" viewBox="0 0 256 256" fill="none" xmlns="http://www.w3.org/2000/svg">
<g filter="url(#filter0_d_27_1932)">
<rect x="48" y="32" width="160" height="160" rx="10" fill="white"/>
</g>
<path d="M68.4483 45H64V49.6258H68.4483V45Z" fill="#212529"/>
<path d="M72.8966 45H68.4483V49.6258H72.8966V45Z" fill="#212529"/>
<path d="M77.3448 45H72.8966V49.6258H77.3448V45Z" fill="#212529"/>
<path d="M81.7931 45H77.3448V49.6258H81.7931V45Z" fill="#212529"/>
<path d="M86.2414 45H81.7931V49.6258H86.2414V45Z" fill="#212529"/>
<path d="M90.6897 45H86.2414V49.6258H90.6897V45Z" fill="#212529"/>
<path d="M95.1379 45H90.6897V49.6258H95.1379V45Z" fill="#212529"/>
<path d="M104.034 45H99.5862V49.6258H104.034V45Z" fill="#212529"/>
<path d="M112.931 45H108.483V49.6258H112.931V45Z" fill="#212529"/>
<path d="M117.379 45H112.931V49.6258H117.379V45Z" fill="#212529"/>
<path d="M130.724 45H126.276V49.6258H130.724V45Z" fill="#212529"/>
<path d="M135.172 45H130.724V49.6258H135.172V45Z" fill="#212529"/>
<path d="M139.621 45H135.172V49.6258H139.621V45Z" fill="#212529"/>
<path d="M148.517 45H144.069V49.6258H148.517V45Z" fill="#212529"/>
<path d="M166.31 45H161.862V49.6258H166.31V45Z" fill="#212529"/>
<path d="M170.759 45H166.31V49.6258H170.759V45Z" fill="#212529"/>
<path d="M175.207 45H170.759V49.6258H175.207V45Z" fill="#212529"/>
<path d="M179.655 45H175.207V49.6258H179.655V45Z" fill="#212529"/>
<path d="M184.103 45H179.655V49.6258H184.103V45Z" fill="#212529"/>
<path d="M188.552 45H184.103V49.6258H188.552V45Z" fill="#212529"/>
<path d="M193 45H188.552V49.6258H193V45Z" fill="#212529"/>
<path d="M68.4483 49.6258H64V54.2515H68.4483V49.6258Z" fill="#212529"/>
<path d="M95.1379 49.6258H90.6897V54.2515H95.1379V49.6258Z" fill="#212529"/>
<path d="M112.931 49.6258H108.483V54.2515H112.931V49.6258Z" fill="#212529"/>
<path d="M121.828 49.6258H117.379V54.2515H121.828V49.6258Z" fill="#212529"/>
<path d="M126.276 49.6258H121.828V54.2515H126.276V49.6258Z" fill="#212529"/>
<path d="M135.172 49.6258H130.724V54.2515H135.172V49.6258Z" fill="#212529"/>
<path d="M139.621 49.6258H135.172V54.2515H139.621V49.6258Z" fill="#212529"/>
<path d="M157.414 49.6258H152.966V54.2515H157.414V49.6258Z" fill="#212529"/>
<path d="M166.31 49.6258H161.862V54.2515H166.31V49.6258Z" fill="#212529"/>
<path d="M193 49.6258H188.552V54.2515H193V49.6258Z" fill="#212529"/>
<path d="M68.4483 54.2515H64V58.8773H68.4483V54.2515Z" fill="#212529"/>
<path d="M77.3448 54.2515H72.8966V58.8773H77.3448V54.2515Z" fill="#212529"/>
<path d="M81.7931 54.2515H77.3448V58.8773H81.7931V54.2515Z" fill="#212529"/>
<path d="M86.2414 54.2515H81.7931V58.8773H86.2414V54.2515Z" fill="#212529"/>
<path d="M95.1379 54.2515H90.6897V58.8773H95.1379V54.2515Z" fill="#212529"/>
<path d="M104.034 54.2515H99.5862V58.8773H104.034V54.2515Z" fill="#212529"/>
<path d="M108.483 54.2515H104.034V58.8773H108.483V54.2515Z" fill="#212529"/>
<path d="M121.828 54.2515H117.379V58.8773H121.828V54.2515Z" fill="#212529"/>
<path d="M130.724 54.2515H126.276V58.8773H130.724V54.2515Z" fill="#212529"/>
<path d="M135.172 54.2515H130.724V58.8773H135.172V54.2515Z" fill="#212529"/>
<path d="M148.517 54.2515H144.069V58.8773H148.517V54.2515Z" fill="#212529"/>
<path d="M157.414 54.2515H152.966V58.8773H157.414V54.2515Z" fill="#212529"/>
<path d="M166.31 54.2515H161.862V58.8773H166.31V54.2515Z" fill="#212529"/>
<path d="M175.207 54.2515H170.759V58.8773H175.207V54.2515Z" fill="#212529"/>
<path d="M179.655 54.2515H175.207V58.8773H179.655V54.2515Z" fill="#212529"/>
<path d="M184.103 54.2515H179.655V58.8773H184.103V54.2515Z" fill="#212529"/>
<path d="M193 54.2515H188.552V58.8773H193V54.2515Z" fill="#212529"/>
<path d="M68.4483 58.8773H64V63.5031H68.4483V58.8773Z" fill="#212529"/>
<path d="M77.3448 58.8773H72.8966V63.5031H77.3448V58.8773Z" fill="#212529"/>
<path d="M81.7931 58.8773H77.3448V63.5031H81.7931V58.8773Z" fill="#212529"/>
<path d="M86.2414 58.8773H81.7931V63.5031H86.2414V58.8773Z" fill="#212529"/>
<path d="M95.1379 58.8773H90.6897V63.5031H95.1379V58.8773Z" fill="#212529"/>
<path d="M104.034 58.8773H99.5862V63.5031H104.034V58.8773Z" fill="#212529"/>
<path d="M108.483 58.8773H104.034V63.5031H108.483V58.8773Z" fill="#212529"/>
<path d="M117.379 58.8773H112.931V63.5031H117.379V58.8773Z" fill="#212529"/>
<path d="M135.172 58.8773H130.724V63.5031H135.172V58.8773Z" fill="#212529"/>
<path d="M144.069 58.8773H139.621V63.5031H144.069V58.8773Z" fill="#212529"/>
<path d="M148.517 58.8773H144.069V63.5031H148.517V58.8773Z" fill="#212529"/>
<path d="M157.414 58.8773H152.966V63.5031H157.414V58.8773Z" fill="#212529"/>
<path d="M166.31 58.8773H161.862V63.5031H166.31V58.8773Z" fill="#212529"/>
<path d="M175.207 58.8773H170.759V63.5031H175.207V58.8773Z" fill="#212529"/>
<path d="M179.655 58.8773H175.207V63.5031H179.655V58.8773Z" fill="#212529"/>
<path d="M184.103 58.8773H179.655V63.5031H184.103V58.8773Z" fill="#212529"/>
<path d="M193 58.8773H188.552V63.5031H193V58.8773Z" fill="#212529"/>
<path d="M68.4483 63.5031H64V68.1289H68.4483V63.5031Z" fill="#212529"/>
<path d="M77.3448 63.5031H72.8966V68.1289H77.3448V63.5031Z" fill="#212529"/>
<path d="M81.7931 63.5031H77.3448V68.1289H81.7931V63.5031Z" fill="#212529"/>
<path d="M86.2414 63.5031H81.7931V68.1289H86.2414V63.5031Z" fill="#212529"/>
<path d="M95.1379 63.5031H90.6897V68.1289H95.1379V63.5031Z" fill="#212529"/>
<path d="M108.483 63.5031H104.034V68.1289H108.483V63.5031Z" fill="#212529"/>
<path d="M112.931 63.5031H108.483V68.1289H112.931V63.5031Z" fill="#212529"/>
<path d="M121.828 63.5031H117.379V68.1289H121.828V63.5031Z" fill="#212529"/>
<path d="M126.276 63.5031H121.828V68.1289H126.276V63.5031Z" fill="#212529"/>
<path d="M135.172 63.5031H130.724V68.1289H135.172V63.5031Z" fill="#212529"/>
<path d="M166.31 63.5031H161.862V68.1289H166.31V63.5031Z" fill="#212529"/>
<path d="M175.207 63.5031H170.759V68.1289H175.207V63.5031Z" fill="#212529"/>
<path d="M179.655 63.5031H175.207V68.1289H179.655V63.5031Z" fill="#212529"/>
<path d="M184.103 63.5031H179.655V68.1289H184.103V63.5031Z" fill="#212529"/>
<path d="M193 63.5031H188.552V68.1289H193V63.5031Z" fill="#212529"/>
<path d="M68.4483 68.1289H64V72.7546H68.4483V68.1289Z" fill="#212529"/>
<path d="M95.1379 68.1289H90.6897V72.7546H95.1379V68.1289Z" fill="#212529"/>
<path d="M104.034 68.1289H99.5862V72.7546H104.034V68.1289Z" fill="#212529"/>
<path d="M108.483 68.1289H104.034V72.7546H108.483V68.1289Z" fill="#212529"/>
<path d="M126.276 68.1289H121.828V72.7546H126.276V68.1289Z" fill="#212529"/>
<path d="M130.724 68.1289H126.276V72.7546H130.724V68.1289Z" fill="#212529"/>
<path d="M166.31 68.1289H161.862V72.7546H166.31V68.1289Z" fill="#212529"/>
<path d="M193 68.1289H188.552V72.7546H193V68.1289Z" fill="#212529"/>
<path d="M68.4483 72.7546H64V77.3804H68.4483V72.7546Z" fill="#212529"/>
<path d="M72.8966 72.7546H68.4483V77.3804H72.8966V72.7546Z" fill="#212529"/>
<path d="M77.3448 72.7546H72.8966V77.3804H77.3448V72.7546Z" fill="#212529"/>
<path d="M81.7931 72.7546H77.3448V77.3804H81.7931V72.7546Z" fill="#212529"/>
<path d="M86.2414 72.7546H81.7931V77.3804H86.2414V72.7546Z" fill="#212529"/>
<path d="M90.6897 72.7546H86.2414V77.3804H90.6897V72.7546Z" fill="#212529"/>
<path d="M95.1379 72.7546H90.6897V77.3804H95.1379V72.7546Z" fill="#212529"/>
<path d="M104.034 72.7546H99.5862V77.3804H104.034V72.7546Z" fill="#212529"/>
<path d="M112.931 72.7546H108.483V77.3804H112.931V72.7546Z" fill="#212529"/>
<path d="M121.828 72.7546H117.379V77.3804H121.828V72.7546Z" fill="#212529"/>
<path d="M130.724 72.7546H126.276V77.3804H130.724V72.7546Z" fill="#212529"/>
<path d="M139.621 72.7546H135.172V77.3804H139.621V72.7546Z" fill="#212529"/>
<path d="M148.517 72.7546H144.069V77.3804H148.517V72.7546Z" fill="#212529"/>
<path d="M157.414 72.7546H152.966V77.3804H157.414V72.7546Z" fill="#212529"/>
<path d="M166.31 72.7546H161.862V77.3804H166.31V72.7546Z" fill="#212529"/>
<path d="M170.759 72.7546H166.31V77.3804H170.759V72.7546Z" fill="#212529"/>
<path d="M175.207 72.7546H170.759V77.3804H175.207V72.7546Z" fill="#212529"/>
<path d="M179.655 72.7546H175.207V77.3804H179.655V72.7546Z" fill="#212529"/>
<path d="M184.103 72.7546H179.655V77.3804H184.103V72.7546Z" fill="#212529"/>
<path d="M188.552 72.7546H184.103V77.3804H188.552V72.7546Z" fill="#212529"/>
<path d="M193 72.7546H188.552V77.3804H193V72.7546Z" fill="#212529"/>
<path d="M104.034 77.3804H99.5862V82.0062H104.034V77.3804Z" fill="#212529"/>
<path d="M108.483 77.3804H104.034V82.0062H108.483V77.3804Z" fill="#212529"/>
<path d="M112.931 77.3804H108.483V82.0062H112.931V77.3804Z" fill="#212529"/>
<path d="M117.379 77.3804H112.931V82.0062H117.379V77.3804Z" fill="#212529"/>
<path d="M121.828 77.3804H117.379V82.0062H121.828V77.3804Z" fill="#212529"/>
<path d="M126.276 77.3804H121.828V82.0062H126.276V77.3804Z" fill="#212529"/>
<path d="M130.724 77.3804H126.276V82.0062H130.724V77.3804Z" fill="#212529"/>
<path d="M135.172 77.3804H130.724V82.0062H135.172V77.3804Z" fill="#212529"/>
<path d="M139.621 77.3804H135.172V82.0062H139.621V77.3804Z" fill="#212529"/>
<path d="M152.966 77.3804H148.517V82.0062H152.966V77.3804Z" fill="#212529"/>
<path d="M157.414 77.3804H152.966V82.0062H157.414V77.3804Z" fill="#212529"/>
<path d="M68.4483 82.0062H64V86.632H68.4483V82.0062Z" fill="#212529"/>
<path d="M72.8966 82.0062H68.4483V86.632H72.8966V82.0062Z" fill="#212529"/>
<path d="M81.7931 82.0062H77.3448V86.632H81.7931V82.0062Z" fill="#212529"/>
<path d="M95.1379 82.0062H90.6897V86.632H95.1379V82.0062Z" fill="#212529"/>
<path d="M99.5862 82.0062H95.1379V86.632H99.5862V82.0062Z" fill="#212529"/>
<path d="M112.931 82.0062H108.483V86.632H112.931V82.0062Z" fill="#212529"/>
<path d="M121.828 82.0062H117.379V86.632H121.828V82.0062Z" fill="#212529"/>
<path d="M130.724 82.0062H126.276V86.632H130.724V82.0062Z" fill="#212529"/>
<path d="M135.172 82.0062H130.724V86.632H135.172V82.0062Z" fill="#212529"/>
<path d="M139.621 82.0062H135.172V86.632H139.621V82.0062Z" fill="#212529"/>
<path d="M144.069 82.0062H139.621V86.632H144.069V82.0062Z" fill="#212529"/>
<path d="M148.517 82.0062H144.069V86.632H148.517V82.0062Z" fill="#212529"/>
<path d="M152.966 82.0062H148.517V86.632H152.966V82.0062Z" fill="#212529"/>
<path d="M157.414 82.0062H152.966V86.632H157.414V82.0062Z" fill="#212529"/>
<path d="M161.862 82.0062H157.414V86.632H161.862V82.0062Z" fill="#212529"/>
<path d="M166.31 82.0062H161.862V86.632H166.31V82.0062Z" fill="#212529"/>
<path d="M170.759 82.0062H166.31V86.632H170.759V82.0062Z" fill="#212529"/>
<path d="M179.655 82.0062H175.207V86.632H179.655V82.0062Z" fill="#212529"/>
<path d="M184.103 82.0062H179.655V86.632H184.103V82.0062Z" fill="#212529"/>
<path d="M193 82.0062H188.552V86.632H193V82.0062Z" fill="#212529"/>
<path d="M68.4483 86.632H64V91.2577H68.4483V86.632Z" fill="#212529"/>
<path d="M81.7931 86.632H77.3448V91.2577H81.7931V86.632Z" fill="#212529"/>
<path d="M86.2414 86.632H81.7931V91.2577H86.2414V86.632Z" fill="#212529"/>
<path d="M104.034 86.632H99.5862V91.2577H104.034V86.632Z" fill="#212529"/>
<path d="M112.931 86.632H108.483V91.2577H112.931V86.632Z" fill="#212529"/>
<path d="M121.828 86.632H117.379V91.2577H121.828V86.632Z" fill="#212529"/>
<path d="M126.276 86.632H121.828V91.2577H126.276V86.632Z" fill="#212529"/>
<path d="M135.172 86.632H130.724V91.2577H135.172V86.632Z" fill="#212529"/>
<path d="M161.862 86.632H157.414V91.2577H161.862V86.632Z" fill="#212529"/>
<path d="M166.31 86.632H161.862V91.2577H166.31V86.632Z" fill="#212529"/>
<path d="M170.759 86.632H166.31V91.2577H170.759V86.632Z" fill="#212529"/>
<path d="M175.207 86.632H170.759V91.2577H175.207V86.632Z" fill="#212529"/>
<path d="M72.8966 91.2577H68.4483V95.8835H72.8966V91.2577Z" fill="#212529"/>
<path d="M77.3448 91.2577H72.8966V95.8835H77.3448V91.2577Z" fill="#212529"/>
<path d="M86.2414 91.2577H81.7931V95.8835H86.2414V91.2577Z" fill="#212529"/>
<path d="M95.1379 91.2577H90.6897V95.8835H95.1379V91.2577Z" fill="#212529"/>
<path d="M108.483 91.2577H104.034V95.8835H108.483V91.2577Z" fill="#212529"/>
<path d="M117.379 91.2577H112.931V95.8835H117.379V91.2577Z" fill="#212529"/>
<path d="M126.276 91.2577H121.828V95.8835H126.276V91.2577Z" fill="#212529"/>
<path d="M130.724 91.2577H126.276V95.8835H130.724V91.2577Z" fill="#212529"/>
<path d="M139.621 91.2577H135.172V95.8835H139.621V91.2577Z" fill="#212529"/>
<path d="M144.069 91.2577H139.621V95.8835H144.069V91.2577Z" fill="#212529"/>
<path d="M161.862 91.2577H157.414V95.8835H161.862V91.2577Z" fill="#212529"/>
<path d="M166.31 91.2577H161.862V95.8835H166.31V91.2577Z" fill="#212529"/>
<path d="M175.207 91.2577H170.759V95.8835H175.207V91.2577Z" fill="#212529"/>
<path d="M179.655 91.2577H175.207V95.8835H179.655V91.2577Z" fill="#212529"/>
<path d="M184.103 91.2577H179.655V95.8835H184.103V91.2577Z" fill="#212529"/>
<path d="M81.7931 95.8835H77.3448V100.509H81.7931V95.8835Z" fill="#212529"/>
<path d="M86.2414 95.8835H81.7931V100.509H86.2414V95.8835Z" fill="#212529"/>
<path d="M90.6897 95.8835H86.2414V100.509H90.6897V95.8835Z" fill="#212529"/>
<path d="M108.483 95.8835H104.034V100.509H108.483V95.8835Z" fill="#212529"/>
<path d="M112.931 95.8835H108.483V100.509H112.931V95.8835Z" fill="#212529"/>
<path d="M117.379 95.8835H112.931V100.509H117.379V95.8835Z" fill="#212529"/>
<path d="M121.828 95.8835H117.379V100.509H121.828V95.8835Z" fill="#212529"/>
<path d="M126.276 95.8835H121.828V100.509H126.276V95.8835Z" fill="#212529"/>
<path d="M135.172 95.8835H130.724V100.509H135.172V95.8835Z" fill="#212529"/>
<path d="M139.621 95.8835H135.172V100.509H139.621V95.8835Z" fill="#212529"/>
<path d="M144.069 95.8835H139.621V100.509H144.069V95.8835Z" fill="#212529"/>
<path d="M148.517 95.8835H144.069V100.509H148.517V95.8835Z" fill="#212529"/>
<path d="M152.966 95.8835H148.517V100.509H152.966V95.8835Z" fill="#212529"/>
<path d="M157.414 95.8835H152.966V100.509H157.414V95.8835Z" fill="#212529"/>
<path d="M179.655 95.8835H175.207V100.509H179.655V95.8835Z" fill="#212529"/>
<path d="M188.552 95.8835H184.103V100.509H188.552V95.8835Z" fill="#212529"/>
<path d="M193 95.8835H188.552V100.509H193V95.8835Z" fill="#212529"/>
<path d="M68.4483 100.509H64V105.135H68.4483V100.509Z" fill="#212529"/>
<path d="M72.8966 100.509H68.4483V105.135H72.8966V100.509Z" fill="#212529"/>
<path d="M77.3448 100.509H72.8966V105.135H77.3448V100.509Z" fill="#212529"/>
<path d="M86.2414 100.509H81.7931V105.135H86.2414V100.509Z" fill="#212529"/>
<path d="M90.6897 100.509H86.2414V105.135H90.6897V100.509Z" fill="#212529"/>
<path d="M95.1379 100.509H90.6897V105.135H95.1379V100.509Z" fill="#212529"/>
<path d="M99.5862 100.509H95.1379V105.135H99.5862V100.509Z" fill="#212529"/>
<path d="M104.034 100.509H99.5862V105.135H104.034V100.509Z" fill="#212529"/>
<path d="M108.483 100.509H104.034V105.135H108.483V100.509Z" fill="#212529"/>
<path d="M144.069 100.509H139.621V105.135H144.069V100.509Z" fill="#212529"/>
<path d="M152.966 100.509H148.517V105.135H152.966V100.509Z" fill="#212529"/>
<path d="M161.862 100.509H157.414V105.135H161.862V100.509Z" fill="#212529"/>
<path d="M170.759 100.509H166.31V105.135H170.759V100.509Z" fill="#212529"/>
<path d="M175.207 100.509H170.759V105.135H175.207V100.509Z" fill="#212529"/>
<path d="M179.655 100.509H175.207V105.135H179.655V100.509Z" fill="#212529"/>
<path d="M68.4483 105.135H64V109.761H68.4483V105.135Z" fill="#212529"/>
<path d="M77.3448 105.135H72.8966V109.761H77.3448V105.135Z" fill="#212529"/>
<path d="M86.2414 105.135H81.7931V109.761H86.2414V105.135Z" fill="#212529"/>
<path d="M99.5862 105.135H95.1379V109.761H99.5862V105.135Z" fill="#212529"/>
<path d="M104.034 105.135H99.5862V109.761H104.034V105.135Z" fill="#212529"/>
<path d="M117.379 105.135H112.931V109.761H117.379V105.135Z" fill="#212529"/>
<path d="M126.276 105.135H121.828V109.761H126.276V105.135Z" fill="#212529"/>
<path d="M135.172 105.135H130.724V109.761H135.172V105.135Z" fill="#212529"/>
<path d="M144.069 105.135H139.621V109.761H144.069V105.135Z" fill="#212529"/>
<path d="M157.414 105.135H152.966V109.761H157.414V105.135Z" fill="#212529"/>
<path d="M161.862 105.135H157.414V109.761H161.862V105.135Z" fill="#212529"/>
<path d="M166.31 105.135H161.862V109.761H166.31V105.135Z" fill="#212529"/>
<path d="M68.4483 109.761H64V114.387H68.4483V109.761Z" fill="#212529"/>
<path d="M72.8966 109.761H68.4483V114.387H72.8966V109.761Z" fill="#212529"/>
<path d="M77.3448 109.761H72.8966V114.387H77.3448V109.761Z" fill="#212529"/>
<path d="M86.2414 109.761H81.7931V114.387H86.2414V109.761Z" fill="#212529"/>
<path d="M90.6897 109.761H86.2414V114.387H90.6897V109.761Z" fill="#212529"/>
<path d="M95.1379 109.761H90.6897V114.387H95.1379V109.761Z" fill="#212529"/>
<path d="M99.5862 109.761H95.1379V114.387H99.5862V109.761Z" fill="#212529"/>
<path d="M104.034 109.761H99.5862V114.387H104.034V109.761Z" fill="#212529"/>
<path d="M112.931 109.761H108.483V114.387H112.931V109.761Z" fill="#212529"/>
<path d="M117.379 109.761H112.931V114.387H117.379V109.761Z" fill="#212529"/>
<path d="M130.724 109.761H126.276V114.387H130.724V109.761Z" fill="#212529"/>
<path d="M161.862 109.761H157.414V114.387H161.862V109.761Z" fill="#212529"/>
<path d="M175.207 109.761H170.759V114.387H175.207V109.761Z" fill="#212529"/>
<path d="M179.655 109.761H175.207V114.387H179.655V109.761Z" fill="#212529"/>
<path d="M86.2414 114.387H81.7931V119.012H86.2414V114.387Z" fill="#212529"/>
<path d="M99.5862 114.387H95.1379V119.012H99.5862V114.387Z" fill="#212529"/>
<path d="M121.828 114.387H117.379V119.012H121.828V114.387Z" fill="#212529"/>
<path d="M126.276 114.387H121.828V119.012H126.276V114.387Z" fill="#212529"/>
<path d="M139.621 114.387H135.172V119.012H139.621V114.387Z" fill="#212529"/>
<path d="M144.069 114.387H139.621V119.012H144.069V114.387Z" fill="#212529"/>
<path d="M148.517 114.387H144.069V119.012H148.517V114.387Z" fill="#212529"/>
<path d="M175.207 114.387H170.759V119.012H175.207V114.387Z" fill="#212529"/>
<path d="M179.655 114.387H175.207V119.012H179.655V114.387Z" fill="#212529"/>
<path d="M188.552 114.387H184.103V119.012H188.552V114.387Z" fill="#212529"/>
<path d="M193 114.387H188.552V119.012H193V114.387Z" fill="#212529"/>
<path d="M68.4483 119.012H64V123.638H68.4483V119.012Z" fill="#212529"/>
<path d="M72.8966 119.012H68.4483V123.638H72.8966V119.012Z" fill="#212529"/>
<path d="M77.3448 119.012H72.8966V123.638H77.3448V119.012Z" fill="#212529"/>
<path d="M81.7931 119.012H77.3448V123.638H81.7931V119.012Z" fill="#212529"/>
<path d="M86.2414 119.012H81.7931V123.638H86.2414V119.012Z" fill="#212529"/>
<path d="M95.1379 119.012H90.6897V123.638H95.1379V119.012Z" fill="#212529"/>
<path d="M99.5862 119.012H95.1379V123.638H99.5862V119.012Z" fill="#212529"/>
<path d="M104.034 119.012H99.5862V123.638H104.034V119.012Z" fill="#212529"/>
<path d="M108.483 119.012H104.034V123.638H108.483V119.012Z" fill="#212529"/>
<path d="M112.931 119.012H108.483V123.638H112.931V119.012Z" fill="#212529"/>
<path d="M117.379 119.012H112.931V123.638H117.379V119.012Z" fill="#212529"/>
<path d="M126.276 119.012H121.828V123.638H126.276V119.012Z" fill="#212529"/>
<path d="M130.724 119.012H126.276V123.638H130.724V119.012Z" fill="#212529"/>
<path d="M135.172 119.012H130.724V123.638H135.172V119.012Z" fill="#212529"/>
<path d="M152.966 119.012H148.517V123.638H152.966V119.012Z" fill="#212529"/>
<path d="M157.414 119.012H152.966V123.638H157.414V119.012Z" fill="#212529"/>
<path d="M161.862 119.012H157.414V123.638H161.862V119.012Z" fill="#212529"/>
<path d="M166.31 119.012H161.862V123.638H166.31V119.012Z" fill="#212529"/>
<path d="M179.655 119.012H175.207V123.638H179.655V119.012Z" fill="#212529"/>
<path d="M188.552 119.012H184.103V123.638H188.552V119.012Z" fill="#212529"/>
<path d="M72.8966 123.638H68.4483V128.264H72.8966V123.638Z" fill="#212529"/>
<path d="M81.7931 123.638H77.3448V128.264H81.7931V123.638Z" fill="#212529"/>
<path d="M90.6897 123.638H86.2414V128.264H90.6897V123.638Z" fill="#212529"/>
<path d="M99.5862 123.638H95.1379V128.264H99.5862V123.638Z" fill="#212529"/>
<path d="M104.034 123.638H99.5862V128.264H104.034V123.638Z" fill="#212529"/>
<path d="M108.483 123.638H104.034V128.264H108.483V123.638Z" fill="#212529"/>
<path d="M112.931 123.638H108.483V128.264H112.931V123.638Z" fill="#212529"/>
<path d="M121.828 123.638H117.379V128.264H121.828V123.638Z" fill="#212529"/>
<path d="M130.724 123.638H126.276V128.264H130.724V123.638Z" fill="#212529"/>
<path d="M144.069 123.638H139.621V128.264H144.069V123.638Z" fill="#212529"/>
<path d="M152.966 123.638H148.517V128.264H152.966V123.638Z" fill="#212529"/>
<path d="M157.414 123.638H152.966V128.264H157.414V123.638Z" fill="#212529"/>
<path d="M166.31 123.638H161.862V128.264H166.31V123.638Z" fill="#212529"/>
<path d="M175.207 123.638H170.759V128.264H175.207V123.638Z" fill="#212529"/>
<path d="M72.8966 128.264H68.4483V132.89H72.8966V128.264Z" fill="#212529"/>
<path d="M81.7931 128.264H77.3448V132.89H81.7931V128.264Z" fill="#212529"/>
<path d="M90.6897 128.264H86.2414V132.89H90.6897V128.264Z" fill="#212529"/>
<path d="M95.1379 128.264H90.6897V132.89H95.1379V128.264Z" fill="#212529"/>
<path d="M99.5862 128.264H95.1379V132.89H99.5862V128.264Z" fill="#212529"/>
<path d="M104.034 128.264H99.5862V132.89H104.034V128.264Z" fill="#212529"/>
<path d="M108.483 128.264H104.034V132.89H108.483V128.264Z" fill="#212529"/>
<path d="M112.931 128.264H108.483V132.89H112.931V128.264Z" fill="#212529"/>
<path d="M117.379 128.264H112.931V132.89H117.379V128.264Z" fill="#212529"/>
<path d="M130.724 128.264H126.276V132.89H130.724V128.264Z" fill="#212529"/>
<path d="M139.621 128.264H135.172V132.89H139.621V128.264Z" fill="#212529"/>
<path d="M148.517 128.264H144.069V132.89H148.517V128.264Z" fill="#212529"/>
<path d="M157.414 128.264H152.966V132.89H157.414V128.264Z" fill="#212529"/>
<path d="M161.862 128.264H157.414V132.89H161.862V128.264Z" fill="#212529"/>
<path d="M170.759 128.264H166.31V132.89H170.759V128.264Z" fill="#212529"/>
<path d="M184.103 128.264H179.655V132.89H184.103V128.264Z" fill="#212529"/>
<path d="M193 128.264H188.552V132.89H193V128.264Z" fill="#212529"/>
<path d="M68.4483 132.89H64V137.515H68.4483V132.89Z" fill="#212529"/>
<path d="M77.3448 132.89H72.8966V137.515H77.3448V132.89Z" fill="#212529"/>
<path d="M86.2414 132.89H81.7931V137.515H86.2414V132.89Z" fill="#212529"/>
<path d="M90.6897 132.89H86.2414V137.515H90.6897V132.89Z" fill="#212529"/>
<path d="M99.5862 132.89H95.1379V137.515H99.5862V132.89Z" fill="#212529"/>
<path d="M108.483 132.89H104.034V137.515H108.483V132.89Z" fill="#212529"/>
<path d="M121.828 132.89H117.379V137.515H121.828V132.89Z" fill="#212529"/>
<path d="M126.276 132.89H121.828V137.515H126.276V132.89Z" fill="#212529"/>
<path d="M130.724 132.89H126.276V137.515H130.724V132.89Z" fill="#212529"/>
<path d="M152.966 132.89H148.517V137.515H152.966V132.89Z" fill="#212529"/>
<path d="M157.414 132.89H152.966V137.515H157.414V132.89Z" fill="#212529"/>
<path d="M166.31 132.89H161.862V137.515H166.31V132.89Z" fill="#212529"/>
<path d="M193 132.89H188.552V137.515H193V132.89Z" fill="#212529"/>
<path d="M68.4483 137.515H64V142.141H68.4483V137.515Z" fill="#212529"/>
<path d="M77.3448 137.515H72.8966V142.141H77.3448V137.515Z" fill="#212529"/>
<path d="M95.1379 137.515H90.6897V142.141H95.1379V137.515Z" fill="#212529"/>
<path d="M108.483 137.515H104.034V142.141H108.483V137.515Z" fill="#212529"/>
<path d="M112.931 137.515H108.483V142.141H112.931V137.515Z" fill="#212529"/>
<path d="M117.379 137.515H112.931V142.141H117.379V137.515Z" fill="#212529"/>
<path d="M126.276 137.515H121.828V142.141H126.276V137.515Z" fill="#212529"/>
<path d="M130.724 137.515H126.276V142.141H130.724V137.515Z" fill="#212529"/>
<path d="M135.172 137.515H130.724V142.141H135.172V137.515Z" fill="#212529"/>
<path d="M139.621 137.515H135.172V142.141H139.621V137.515Z" fill="#212529"/>
<path d="M144.069 137.515H139.621V142.141H144.069V137.515Z" fill="#212529"/>
<path d="M148.517 137.515H144.069V142.141H148.517V137.515Z" fill="#212529"/>
<path d="M152.966 137.515H148.517V142.141H152.966V137.515Z" fill="#212529"/>
<path d="M157.414 137.515H152.966V142.141H157.414V137.515Z" fill="#212529"/>
<path d="M161.862 137.515H157.414V142.141H161.862V137.515Z" fill="#212529"/>
<path d="M166.31 137.515H161.862V142.141H166.31V137.515Z" fill="#212529"/>
<path d="M170.759 137.515H166.31V142.141H170.759V137.515Z" fill="#212529"/>
<path d="M175.207 137.515H170.759V142.141H175.207V137.515Z" fill="#212529"/>
<path d="M184.103 137.515H179.655V142.141H184.103V137.515Z" fill="#212529"/>
<path d="M188.552 137.515H184.103V142.141H188.552V137.515Z" fill="#212529"/>
<path d="M193 137.515H188.552V142.141H193V137.515Z" fill="#212529"/>
<path d="M108.483 142.141H104.034V146.767H108.483V142.141Z" fill="#212529"/>
<path d="M130.724 142.141H126.276V146.767H130.724V142.141Z" fill="#212529"/>
<path d="M139.621 142.141H135.172V146.767H139.621V142.141Z" fill="#212529"/>
<path d="M148.517 142.141H144.069V146.767H148.517V142.141Z" fill="#212529"/>
<path d="M157.414 142.141H152.966V146.767H157.414V142.141Z" fill="#212529"/>
<path d="M175.207 142.141H170.759V146.767H175.207V142.141Z" fill="#212529"/>
<path d="M179.655 142.141H175.207V146.767H179.655V142.141Z" fill="#212529"/>
<path d="M188.552 142.141H184.103V146.767H188.552V142.141Z" fill="#212529"/>
<path d="M193 142.141H188.552V146.767H193V142.141Z" fill="#212529"/>
<path d="M68.4483 146.767H64V151.393H68.4483V146.767Z" fill="#212529"/>
<path d="M72.8966 146.767H68.4483V151.393H72.8966V146.767Z" fill="#212529"/>
<path d="M77.3448 146.767H72.8966V151.393H77.3448V146.767Z" fill="#212529"/>
<path d="M81.7931 146.767H77.3448V151.393H81.7931V146.767Z" fill="#212529"/>
<path d="M86.2414 146.767H81.7931V151.393H86.2414V146.767Z" fill="#212529"/>
<path d="M90.6897 146.767H86.2414V151.393H90.6897V146.767Z" fill="#212529"/>
<path d="M95.1379 146.767H90.6897V151.393H95.1379V146.767Z" fill="#212529"/>
<path d="M104.034 146.767H99.5862V151.393H104.034V146.767Z" fill="#212529"/>
<path d="M108.483 146.767H104.034V151.393H108.483V146.767Z" fill="#212529"/>
<path d="M126.276 146.767H121.828V151.393H126.276V146.767Z" fill="#212529"/>
<path d="M130.724 146.767H126.276V151.393H130.724V146.767Z" fill="#212529"/>
<path d="M148.517 146.767H144.069V151.393H148.517V146.767Z" fill="#212529"/>
<path d="M157.414 146.767H152.966V151.393H157.414V146.767Z" fill="#212529"/>
<path d="M166.31 146.767H161.862V151.393H166.31V146.767Z" fill="#212529"/>
<path d="M175.207 146.767H170.759V151.393H175.207V146.767Z" fill="#212529"/>
<path d="M68.4483 151.393H64V156.019H68.4483V151.393Z" fill="#212529"/>
<path d="M95.1379 151.393H90.6897V156.019H95.1379V151.393Z" fill="#212529"/>
<path d="M108.483 151.393H104.034V156.019H108.483V151.393Z" fill="#212529"/>
<path d="M112.931 151.393H108.483V156.019H112.931V151.393Z" fill="#212529"/>
<path d="M117.379 151.393H112.931V156.019H117.379V151.393Z" fill="#212529"/>
<path d="M126.276 151.393H121.828V156.019H126.276V151.393Z" fill="#212529"/>
<path d="M130.724 151.393H126.276V156.019H130.724V151.393Z" fill="#212529"/>
<path d="M135.172 151.393H130.724V156.019H135.172V151.393Z" fill="#212529"/>
<path d="M144.069 151.393H139.621V156.019H144.069V151.393Z" fill="#212529"/>
<path d="M148.517 151.393H144.069V156.019H148.517V151.393Z" fill="#212529"/>
<path d="M157.414 151.393H152.966V156.019H157.414V151.393Z" fill="#212529"/>
<path d="M175.207 151.393H170.759V156.019H175.207V151.393Z" fill="#212529"/>
<path d="M184.103 151.393H179.655V156.019H184.103V151.393Z" fill="#212529"/>
<path d="M188.552 151.393H184.103V156.019H188.552V151.393Z" fill="#212529"/>
<path d="M68.4483 156.019H64V160.644H68.4483V156.019Z" fill="#212529"/>
<path d="M77.3448 156.019H72.8966V160.644H77.3448V156.019Z" fill="#212529"/>
<path d="M81.7931 156.019H77.3448V160.644H81.7931V156.019Z" fill="#212529"/>
<path d="M86.2414 156.019H81.7931V160.644H86.2414V156.019Z" fill="#212529"/>
<path d="M95.1379 156.019H90.6897V160.644H95.1379V156.019Z" fill="#212529"/>
<path d="M108.483 156.019H104.034V160.644H108.483V156.019Z" fill="#212529"/>
<path d="M112.931 156.019H108.483V160.644H112.931V156.019Z" fill="#212529"/>
<path d="M117.379 156.019H112.931V160.644H117.379V156.019Z" fill="#212529"/>
<path d="M130.724 156.019H126.276V160.644H130.724V156.019Z" fill="#212529"/>
<path d="M135.172 156.019H130.724V160.644H135.172V156.019Z" fill="#212529"/>
<path d="M139.621 156.019H135.172V160.644H139.621V156.019Z" fill="#212529"/>
<path d="M157.414 156.019H152.966V160.644H157.414V156.019Z" fill="#212529"/>
<path d="M161.862 156.019H157.414V160.644H161.862V156.019Z" fill="#212529"/>
<path d="M166.31 156.019H161.862V160.644H166.31V156.019Z" fill="#212529"/>
<path d="M170.759 156.019H166.31V160.644H170.759V156.019Z" fill="#212529"/>
<path d="M175.207 156.019H170.759V160.644H175.207V156.019Z" fill="#212529"/>
<path d="M179.655 156.019H175.207V160.644H179.655V156.019Z" fill="#212529"/>
<path d="M68.4483 160.644H64V165.27H68.4483V160.644Z" fill="#212529"/>
<path d="M77.3448 160.644H72.8966V165.27H77.3448V160.644Z" fill="#212529"/>
<path d="M81.7931 160.644H77.3448V165.27H81.7931V160.644Z" fill="#212529"/>
<path d="M86.2414 160.644H81.7931V165.27H86.2414V160.644Z" fill="#212529"/>
<path d="M95.1379 160.644H90.6897V165.27H95.1379V160.644Z" fill="#212529"/>
<path d="M104.034 160.644H99.5862V165.27H104.034V160.644Z" fill="#212529"/>
<path d="M121.828 160.644H117.379V165.27H121.828V160.644Z" fill="#212529"/>
<path d="M139.621 160.644H135.172V165.27H139.621V160.644Z" fill="#212529"/>
<path d="M144.069 160.644H139.621V165.27H144.069V160.644Z" fill="#212529"/>
<path d="M157.414 160.644H152.966V165.27H157.414V160.644Z" fill="#212529"/>
<path d="M161.862 160.644H157.414V165.27H161.862V160.644Z" fill="#212529"/>
<path d="M166.31 160.644H161.862V165.27H166.31V160.644Z" fill="#212529"/>
<path d="M170.759 160.644H166.31V165.27H170.759V160.644Z" fill="#212529"/>
<path d="M179.655 160.644H175.207V165.27H179.655V160.644Z" fill="#212529"/>
<path d="M188.552 160.644H184.103V165.27H188.552V160.644Z" fill="#212529"/>
<path d="M193 160.644H188.552V165.27H193V160.644Z" fill="#212529"/>
<path d="M68.4483 165.27H64V169.896H68.4483V165.27Z" fill="#212529"/>
<path d="M77.3448 165.27H72.8966V169.896H77.3448V165.27Z" fill="#212529"/>
<path d="M81.7931 165.27H77.3448V169.896H81.7931V165.27Z" fill="#212529"/>
<path d="M86.2414 165.27H81.7931V169.896H86.2414V165.27Z" fill="#212529"/>
<path d="M95.1379 165.27H90.6897V169.896H95.1379V165.27Z" fill="#212529"/>
<path d="M112.931 165.27H108.483V169.896H112.931V165.27Z" fill="#212529"/>
<path d="M121.828 165.27H117.379V169.896H121.828V165.27Z" fill="#212529"/>
<path d="M126.276 165.27H121.828V169.896H126.276V165.27Z" fill="#212529"/>
<path d="M130.724 165.27H126.276V169.896H130.724V165.27Z" fill="#212529"/>
<path d="M144.069 165.27H139.621V169.896H144.069V165.27Z" fill="#212529"/>
<path d="M148.517 165.27H144.069V169.896H148.517V165.27Z" fill="#212529"/>
<path d="M152.966 165.27H148.517V169.896H152.966V165.27Z" fill="#212529"/>
<path d="M157.414 165.27H152.966V169.896H157.414V165.27Z" fill="#212529"/>
<path d="M161.862 165.27H157.414V169.896H161.862V165.27Z" fill="#212529"/>
<path d="M175.207 165.27H170.759V169.896H175.207V165.27Z" fill="#212529"/>
<path d="M184.103 165.27H179.655V169.896H184.103V165.27Z" fill="#212529"/>
<path d="M68.4483 169.896H64V174.522H68.4483V169.896Z" fill="#212529"/>
<path d="M95.1379 169.896H90.6897V174.522H95.1379V169.896Z" fill="#212529"/>
<path d="M104.034 169.896H99.5862V174.522H104.034V169.896Z" fill="#212529"/>
<path d="M112.931 169.896H108.483V174.522H112.931V169.896Z" fill="#212529"/>
<path d="M126.276 169.896H121.828V174.522H126.276V169.896Z" fill="#212529"/>
<path d="M130.724 169.896H126.276V174.522H130.724V169.896Z" fill="#212529"/>
<path d="M135.172 169.896H130.724V174.522H135.172V169.896Z" fill="#212529"/>
<path d="M139.621 169.896H135.172V174.522H139.621V169.896Z" fill="#212529"/>
<path d="M144.069 169.896H139.621V174.522H144.069V169.896Z" fill="#212529"/>
<path d="M161.862 169.896H157.414V174.522H161.862V169.896Z" fill="#212529"/>
<path d="M166.31 169.896H161.862V174.522H166.31V169.896Z" fill="#212529"/>
<path d="M170.759 169.896H166.31V174.522H170.759V169.896Z" fill="#212529"/>
<path d="M188.552 169.896H184.103V174.522H188.552V169.896Z" fill="#212529"/>
<path d="M193 169.896H188.552V174.522H193V169.896Z" fill="#212529"/>
<path d="M68.4483 174.522H64V179.147H68.4483V174.522Z" fill="#212529"/>
<path d="M72.8966 174.522H68.4483V179.147H72.8966V174.522Z" fill="#212529"/>
<path d="M77.3448 174.522H72.8966V179.147H77.3448V174.522Z" fill="#212529"/>
<path d="M81.7931 174.522H77.3448V179.147H81.7931V174.522Z" fill="#212529"/>
<path d="M86.2414 174.522H81.7931V179.147H86.2414V174.522Z" fill="#212529"/>
<path d="M90.6897 174.522H86.2414V179.147H90.6897V174.522Z" fill="#212529"/>
<path d="M95.1379 174.522H90.6897V179.147H95.1379V174.522Z" fill="#212529"/>
<path d="M104.034 174.522H99.5862V179.147H104.034V174.522Z" fill="#212529"/>
<path d="M108.483 174.522H104.034V179.147H108.483V174.522Z" fill="#212529"/>
<path d="M117.379 174.522H112.931V179.147H117.379V174.522Z" fill="#212529"/>
<path d="M126.276 174.522H121.828V179.147H126.276V174.522Z" fill="#212529"/>
<path d="M130.724 174.522H126.276V179.147H130.724V174.522Z" fill="#212529"/>
<path d="M161.862 174.522H157.414V179.147H161.862V174.522Z" fill="#212529"/>
<path d="M170.759 174.522H166.31V179.147H170.759V174.522Z" fill="#212529"/>
<path d="M179.655 174.522H175.207V179.147H179.655V174.522Z" fill="#212529"/>
<path d="M184.103 174.522H179.655V179.147H184.103V174.522Z" fill="#212529"/>
<defs>
<filter id="filter0_d_27_1932" x="0" y="0" width="256" height="256" filterUnits="userSpaceOnUse" color-interpolation-filters="sRGB">
<feFlood flood-opacity="0" result="BackgroundImageFix"/>
<feColorMatrix in="SourceAlpha" type="matrix" values="0 0 0 0 0 0 0 0 0 0 0 0 0 0 0 0 0 0 127 0" result="hardAlpha"/>
<feOffset dy="16"/>
<feGaussianBlur stdDeviation="24"/>
<feColorMatrix type="matrix" values="0 0 0 0 0 0 0 0 0 0 0 0 0 0 0 0 0 0 0.176 0"/>
<feBlend mode="normal" in2="BackgroundImageFix" result="effect1_dropShadow_27_1932"/>
<feBlend mode="normal" in="SourceGraphic" in2="effect1_dropShadow_27_1932" result="shape"/>
</filter>
</defs>
</svg>
