<svg width="1111" height="119" viewBox="0 0 1111 119" fill="none" xmlns="http://www.w3.org/2000/svg">
<rect y="119" width="119" height="1111" rx="2" transform="rotate(-90 0 119)" fill="#212529"/>
<rect x="460" y="37" width="192" height="44" rx="22" fill="white"/>
<path d="M529.286 66.592C527.643 66.592 526.401 66.208 525.558 65.44C524.726 64.6827 524.31 63.6053 524.31 62.208C524.31 61.728 524.374 61.1893 524.502 60.592C524.641 59.984 524.827 59.3973 525.062 58.832L526.598 59.28C526.385 59.7387 526.214 60.2027 526.086 60.672C525.969 61.1413 525.91 61.5467 525.91 61.888C525.91 62.56 526.15 63.0827 526.63 63.456C527.11 63.8187 527.782 64 528.646 64H529.926C530.833 64 531.499 63.792 531.926 63.376C532.353 62.96 532.566 62.3093 532.566 61.424C532.566 61.1787 532.539 60.864 532.486 60.48C532.433 60.096 532.369 59.7333 532.294 59.392L531.974 57.904L533.702 57.568L534.006 59.04C534.081 59.392 534.139 59.7973 534.182 60.256C534.235 60.704 534.262 61.0933 534.262 61.424C534.262 63.1947 533.857 64.496 533.046 65.328C532.246 66.1707 530.993 66.592 529.286 66.592ZM529.126 58C528.849 58 528.619 57.9147 528.438 57.744C528.267 57.5733 528.182 57.3013 528.182 56.928C528.182 56.5547 528.267 56.2827 528.438 56.112C528.619 55.9413 528.849 55.856 529.126 55.856H529.446C529.723 55.856 529.947 55.9413 530.118 56.112C530.299 56.2827 530.39 56.5547 530.39 56.928C530.39 57.3013 530.299 57.5733 530.118 57.744C529.947 57.9147 529.723 58 529.446 58H529.126ZM535.468 61.6L538.22 59.12L534.508 55.632L535.9 54.128L539.74 57.744C539.921 57.5413 540.049 57.3227 540.124 57.088C540.209 56.8427 540.252 56.5227 540.252 56.128V52.16H542.172V56.128C542.172 56.4053 542.145 56.6613 542.092 56.896C542.049 57.1307 541.975 57.3547 541.868 57.568C541.772 57.7813 541.639 57.9893 541.468 58.192C541.297 58.384 541.095 58.5867 540.86 58.8L541.42 59.312C541.644 59.5253 541.836 59.728 541.996 59.92C542.156 60.112 542.284 60.304 542.38 60.496C542.476 60.688 542.545 60.8907 542.588 61.104C542.631 61.3067 542.652 61.5253 542.652 61.76C542.652 62.08 542.593 62.3787 542.476 62.656C542.369 62.9227 542.215 63.1573 542.012 63.36C541.82 63.5627 541.591 63.7227 541.324 63.84C541.057 63.9467 540.764 64 540.444 64H535.468V61.6ZM539.292 60.112L537.596 61.536L537.612 61.6H540.892L539.292 60.112ZM534.62 52.96C534.62 52.48 534.743 52.128 534.988 51.904C535.244 51.68 535.628 51.616 536.14 51.712L537.116 51.904C537.351 51.9573 537.527 51.9893 537.644 52C537.772 52.0107 537.873 52.016 537.948 52.016C538.193 52.016 538.375 51.968 538.492 51.872C538.609 51.776 538.711 51.5947 538.796 51.328L539.724 51.792C539.511 52.8693 538.919 53.408 537.948 53.408C537.799 53.408 537.644 53.4027 537.484 53.392C537.324 53.3707 537.116 53.3333 536.86 53.28L535.74 53.072V53.536H534.62V52.96ZM544.179 52.16H546.099V64H544.179V52.16ZM556.86 67.68C555.057 67.68 553.697 67.296 552.78 66.528C551.862 65.76 551.404 64.6773 551.404 63.28C551.404 62.8 551.468 62.2613 551.596 61.664C551.734 61.056 551.921 60.4693 552.156 59.904L553.692 60.352C553.478 60.8107 553.308 61.2747 553.18 61.744C553.062 62.2133 553.004 62.6187 553.004 62.96C553.004 63.632 553.286 64.1547 553.852 64.528C554.417 64.9013 555.206 65.088 556.22 65.088H557.5C558.097 65.088 558.598 65.056 559.004 64.992C559.409 64.928 559.734 64.816 559.98 64.656C560.236 64.5067 560.417 64.3093 560.524 64.064C560.641 63.8187 560.7 63.5147 560.7 63.152V62.416H560.604C560.444 62.96 560.182 63.36 559.82 63.616C559.468 63.872 559.02 64 558.476 64C557.612 64 556.934 63.7493 556.444 63.248C555.964 62.736 555.724 62.0267 555.724 61.12C555.724 60.5653 555.804 60.0533 555.964 59.584C556.134 59.104 556.364 58.6933 556.652 58.352C556.95 58 557.297 57.728 557.692 57.536C558.097 57.3333 558.534 57.232 559.004 57.232C560.049 57.232 560.86 57.6693 561.436 58.544C562.022 59.4187 562.316 60.6347 562.316 62.192C562.316 63.216 562.22 64.0747 562.028 64.768C561.846 65.472 561.537 66.0373 561.1 66.464C560.673 66.9013 560.113 67.2107 559.42 67.392C558.726 67.584 557.873 67.68 556.86 67.68ZM558.972 61.6C559.377 61.6 559.718 61.584 559.996 61.552C560.273 61.5093 560.497 61.4453 560.668 61.36C560.604 60.8373 560.396 60.4213 560.044 60.112C559.702 59.792 559.286 59.632 558.796 59.632C558.38 59.632 558.028 59.744 557.74 59.968C557.462 60.1813 557.324 60.4587 557.324 60.8C557.324 61.088 557.441 61.296 557.676 61.424C557.91 61.5413 558.23 61.6 558.636 61.6H558.972ZM560.108 55.952C559.83 55.952 559.601 55.8667 559.42 55.696C559.249 55.5253 559.164 55.2533 559.164 54.88C559.164 54.5067 559.249 54.2347 559.42 54.064C559.601 53.8933 559.83 53.808 560.108 53.808H560.428C560.705 53.808 560.929 53.8933 561.1 54.064C561.281 54.2347 561.372 54.5067 561.372 54.88C561.372 55.2533 561.281 55.5253 561.1 55.696C560.929 55.8667 560.705 55.952 560.428 55.952H560.108ZM557.58 55.952C557.302 55.952 557.073 55.8667 556.892 55.696C556.721 55.5253 556.636 55.2533 556.636 54.88C556.636 54.5067 556.721 54.2347 556.892 54.064C557.073 53.8933 557.302 53.808 557.58 53.808H557.9C558.177 53.808 558.401 53.8933 558.572 54.064C558.753 54.2347 558.844 54.5067 558.844 54.88C558.844 55.2533 558.753 55.5253 558.572 55.696C558.401 55.8667 558.177 55.952 557.9 55.952H557.58ZM563.355 65.44H564.379C565.392 65.44 566.203 65.312 566.811 65.056C567.43 64.8 567.867 64.448 568.123 64H566.267C565.403 64 564.726 63.7493 564.235 63.248C563.755 62.736 563.515 62.0267 563.515 61.12C563.515 60.5653 563.595 60.0533 563.755 59.584C563.926 59.104 564.155 58.6933 564.443 58.352C564.742 58 565.088 57.728 565.483 57.536C565.888 57.3333 566.326 57.232 566.795 57.232C567.766 57.232 568.534 57.616 569.099 58.384C569.664 59.152 569.974 60.224 570.027 61.6H570.843V63.52L570.363 64H569.819C569.52 65.2267 568.928 66.1707 568.043 66.832C567.168 67.504 566 67.84 564.539 67.84H563.355V65.44ZM565.115 60.8C565.115 61.088 565.232 61.296 565.467 61.424C565.702 61.5413 566.022 61.6 566.427 61.6H568.427V61.552C568.427 60.976 568.251 60.512 567.899 60.16C567.558 59.808 567.12 59.632 566.587 59.632C566.171 59.632 565.819 59.744 565.531 59.968C565.254 60.1813 565.115 60.4587 565.115 60.8ZM570.364 62.08L570.844 61.6H570.86C571.361 61.6 571.74 61.5413 571.996 61.424C572.252 61.296 572.454 61.0773 572.604 60.768L573.228 59.472L574.812 60.24L574.252 61.424C574.508 61.5413 574.769 61.6373 575.036 61.712C575.302 61.7867 575.574 61.824 575.852 61.824C576.31 61.824 576.641 61.728 576.844 61.536C577.046 61.3333 577.148 60.9813 577.148 60.48V59.472H578.908V60.48C578.908 60.928 578.972 61.2533 579.1 61.456C579.228 61.6587 579.462 61.76 579.804 61.76H579.964C580.241 61.76 580.46 61.6587 580.62 61.456C580.79 61.2533 580.876 60.928 580.876 60.48V58.832H582.636V60.48C582.636 61.2267 583.009 61.6 583.756 61.6H584.396V63.52L583.916 64C583.105 64 582.486 63.84 582.06 63.52C581.644 63.1893 581.377 62.672 581.26 61.968H581.164C581.1 62.736 580.908 63.3013 580.588 63.664C580.268 64.016 579.841 64.192 579.308 64.192C578.742 64.192 578.305 64.016 577.996 63.664C577.686 63.3013 577.473 62.736 577.356 61.968H577.26C577.174 62.736 576.982 63.3013 576.684 63.664C576.396 64.016 576.012 64.192 575.532 64.192C575.222 64.192 574.913 64.1333 574.604 64.016C574.305 63.9093 573.91 63.712 573.42 63.424L573.1 63.232C572.769 63.5413 572.39 63.7493 571.964 63.856C571.548 63.952 571.014 64 570.364 64V62.08ZM583.911 62.08L584.391 61.6H584.855C585.239 61.6 585.553 61.584 585.799 61.552C586.055 61.52 586.257 61.4667 586.407 61.392C586.567 61.3067 586.673 61.2053 586.727 61.088C586.791 60.96 586.823 60.8053 586.823 60.624C586.823 60.464 586.807 60.2613 586.775 60.016C586.753 59.76 586.705 59.4293 586.631 59.024L586.359 57.536L588.103 57.248L588.343 58.736C588.396 59.024 588.439 59.344 588.471 59.696C588.503 60.048 588.519 60.3573 588.519 60.624C588.519 61.7867 588.231 62.64 587.655 63.184C587.089 63.728 586.156 64 584.855 64H583.911V62.08ZM588.087 55.968C587.809 55.968 587.58 55.8827 587.399 55.712C587.228 55.5413 587.143 55.2693 587.143 54.896C587.143 54.5227 587.228 54.2507 587.399 54.08C587.58 53.9093 587.809 53.824 588.087 53.824H588.407C588.684 53.824 588.908 53.9093 589.079 54.08C589.26 54.2507 589.351 54.5227 589.351 54.896C589.351 55.2693 589.26 55.5413 589.079 55.712C588.908 55.8827 588.684 55.968 588.407 55.968H588.087ZM585.559 55.968C585.281 55.968 585.052 55.8827 584.871 55.712C584.7 55.5413 584.615 55.2693 584.615 54.896C584.615 54.5227 584.7 54.2507 584.871 54.08C585.052 53.9093 585.281 53.824 585.559 53.824H585.879C586.156 53.824 586.38 53.9093 586.551 54.08C586.732 54.2507 586.823 54.5227 586.823 54.896C586.823 55.2693 586.732 55.5413 586.551 55.712C586.38 55.8827 586.156 55.968 585.879 55.968H585.559Z" fill="#343A40"/>
<g opacity="0.2">
<circle cx="1074.64" cy="23.8182" r="7.81818" fill="#6C757D"/>
<circle cx="1074.64" cy="47.2727" r="7.81818" fill="#6C757D"/>
<circle cx="1074.64" cy="70.7272" r="7.81818" fill="#6C757D"/>
<circle cx="1074.64" cy="94.1819" r="7.81818" fill="#6C757D"/>
<circle cx="1051.18" cy="23.8182" r="7.81818" fill="#6C757D"/>
<circle cx="1051.18" cy="47.2727" r="7.81818" fill="#6C757D"/>
<circle cx="1051.18" cy="70.7272" r="7.81818" fill="#6C757D"/>
<circle cx="1051.18" cy="94.1819" r="7.81818" fill="#6C757D"/>
<circle cx="1027.73" cy="23.8182" r="7.81818" fill="#6C757D"/>
<circle cx="1027.73" cy="47.2727" r="7.81818" fill="#6C757D"/>
<circle cx="1027.73" cy="70.7272" r="7.81818" fill="#6C757D"/>
<circle cx="1027.73" cy="94.1819" r="7.81818" fill="#6C757D"/>
<circle cx="1004.27" cy="23.8182" r="7.81818" fill="#6C757D"/>
<circle cx="1004.27" cy="47.2727" r="7.81818" fill="#6C757D"/>
<circle cx="1004.27" cy="70.7272" r="7.81818" fill="#6C757D"/>
<circle cx="1004.27" cy="94.1819" r="7.81818" fill="#6C757D"/>
<circle cx="980.818" cy="23.8182" r="7.81818" fill="#6C757D"/>
<circle cx="980.818" cy="47.2727" r="7.81818" fill="#6C757D"/>
<circle cx="980.818" cy="70.7272" r="7.81818" fill="#6C757D"/>
<circle cx="980.818" cy="94.1819" r="7.81818" fill="#6C757D"/>
</g>
<path d="M34.7175 44.728H38.5575V33.912C38.5575 30.936 38.8135 30.04 39.9015 29.56L40.6375 29.24L40.7655 29.4C40.2855 30.04 40.0295 30.744 40.0295 31.512C40.0295 33.56 41.7575 35 44.3495 35H49.7575V32.312L49.9495 32.28C51.0375 34.136 52.4775 35 55.2935 35L56.2535 34.04V30.2H55.2935C53.8855 30.2 53.3095 29.88 52.8295 28.568L50.3015 21.784H46.0775L39.6775 24.824C35.7415 26.68 34.7175 28.472 34.7175 33.912V44.728ZM42.4615 28.888C42.4615 28.216 42.9415 27.768 44.0615 27.32L47.4215 25.976L49.0215 30.2H44.3175C43.1655 30.2 42.4615 29.752 42.4615 28.888ZM84.858 35L85.818 34.04V30.2H84.858C84.346 30.2 83.834 30.168 83.29 30.104C83.45 29.464 83.514 28.76 83.514 27.992C83.514 23.096 80.986 20.184 75.962 20.184C71.61 20.184 68.442 22.2 65.466 27.416L64.058 29.848C63.546 29.496 63.29 28.888 63.29 27.96V25.944H59.77V27.96C59.77 29.496 58.97 30.2 57.21 30.2H56.25L55.29 31.16V35C58.042 35 59.418 33.656 59.994 30.68H60.186C60.762 33.656 62.458 35 65.85 35H75.002C77.53 35 79.45 34.584 80.826 33.72C82.01 34.68 83.354 35 84.858 35ZM75.002 30.2H66.97L66.874 30.008L68.25 27.928C69.882 25.464 71.642 24.984 75.482 24.984H76.442C79.194 24.984 80.314 25.88 80.314 27.704C80.314 29.72 79.066 30.2 75.002 30.2ZM84.8525 35H88.0205C92.1165 35 95.2525 34.456 100.853 30.648L103.861 28.6H106.357V23.8H105.717C103.829 23.8 101.749 23.512 100.053 23.064L93.8765 21.464C91.8605 20.952 91.2205 20.824 90.5485 20.824C87.8925 20.824 86.5805 22.2 86.5805 25.208V27.672H90.2605V25.272L95.0925 26.456L100.213 27.544V27.704L99.0285 28.28C95.3485 30.072 92.8205 30.2 88.0205 30.2H85.8125L84.8525 31.16V35ZM94.2605 18.264H94.9005C95.9885 18.264 96.7885 17.624 96.7885 16.12C96.7885 14.616 95.9885 13.976 94.9005 13.976H94.2605C93.1725 13.976 92.3725 14.616 92.3725 16.12C92.3725 17.624 93.1725 18.264 94.2605 18.264Z" fill="white"/>
<path d="M126.718 44.728H130.558V33.912C130.558 30.936 130.814 30.04 131.902 29.56L132.638 29.24L132.766 29.4C132.286 30.04 132.03 30.744 132.03 31.512C132.03 33.56 133.758 35 136.35 35H141.758V32.312L141.95 32.28C143.038 34.136 144.478 35 147.294 35L148.254 34.04V30.2H147.294C145.886 30.2 145.31 29.88 144.83 28.568L142.302 21.784H138.078L131.678 24.824C127.742 26.68 126.718 28.472 126.718 33.912V44.728ZM134.462 28.888C134.462 28.216 134.942 27.768 136.062 27.32L139.422 25.976L141.022 30.2H136.318C135.166 30.2 134.462 29.752 134.462 28.888ZM176.858 35L177.818 34.04V30.2H176.858C176.346 30.2 175.834 30.168 175.29 30.104C175.45 29.464 175.514 28.76 175.514 27.992C175.514 23.096 172.986 20.184 167.962 20.184C163.61 20.184 160.442 22.2 157.466 27.416L156.058 29.848C155.546 29.496 155.29 28.888 155.29 27.96V25.944H151.77V27.96C151.77 29.496 150.97 30.2 149.21 30.2H148.25L147.29 31.16V35C150.042 35 151.418 33.656 151.994 30.68H152.186C152.762 33.656 154.458 35 157.85 35H167.002C169.53 35 171.45 34.584 172.826 33.72C174.01 34.68 175.354 35 176.858 35ZM167.002 30.2H158.97L158.874 30.008L160.25 27.928C161.882 25.464 163.642 24.984 167.482 24.984H168.442C171.194 24.984 172.314 25.88 172.314 27.704C172.314 29.72 171.066 30.2 167.002 30.2ZM176.852 35H180.021C184.117 35 187.253 34.456 192.853 30.648L195.861 28.6H198.357V23.8H197.717C195.829 23.8 193.749 23.512 192.053 23.064L185.877 21.464C183.861 20.952 183.221 20.824 182.549 20.824C179.893 20.824 178.581 22.2 178.581 25.208V27.672H182.261V25.272L187.093 26.456L192.213 27.544V27.704L191.029 28.28C187.349 30.072 184.821 30.2 180.021 30.2H177.812L176.852 31.16V35ZM186.26 18.264H186.901C187.989 18.264 188.789 17.624 188.789 16.12C188.789 14.616 187.989 13.976 186.901 13.976H186.26C185.173 13.976 184.373 14.616 184.373 16.12C184.373 17.624 185.173 18.264 186.26 18.264Z" fill="white"/>
<path d="M218.718 44.728H222.558V33.912C222.558 30.936 222.814 30.04 223.902 29.56L224.638 29.24L224.766 29.4C224.286 30.04 224.03 30.744 224.03 31.512C224.03 33.56 225.758 35 228.35 35H233.758V32.312L233.95 32.28C235.038 34.136 236.478 35 239.294 35L240.254 34.04V30.2H239.294C237.886 30.2 237.31 29.88 236.83 28.568L234.302 21.784H230.078L223.678 24.824C219.742 26.68 218.718 28.472 218.718 33.912V44.728ZM226.462 28.888C226.462 28.216 226.942 27.768 228.062 27.32L231.422 25.976L233.022 30.2H228.318C227.166 30.2 226.462 29.752 226.462 28.888ZM268.858 35L269.818 34.04V30.2H268.858C268.346 30.2 267.834 30.168 267.29 30.104C267.45 29.464 267.514 28.76 267.514 27.992C267.514 23.096 264.986 20.184 259.962 20.184C255.61 20.184 252.442 22.2 249.466 27.416L248.058 29.848C247.546 29.496 247.29 28.888 247.29 27.96V25.944H243.77V27.96C243.77 29.496 242.97 30.2 241.21 30.2H240.25L239.29 31.16V35C242.042 35 243.418 33.656 243.994 30.68H244.186C244.762 33.656 246.458 35 249.85 35H259.002C261.53 35 263.45 34.584 264.826 33.72C266.01 34.68 267.354 35 268.858 35ZM259.002 30.2H250.97L250.874 30.008L252.25 27.928C253.882 25.464 255.642 24.984 259.482 24.984H260.442C263.194 24.984 264.314 25.88 264.314 27.704C264.314 29.72 263.066 30.2 259.002 30.2ZM268.852 35H272.021C276.117 35 279.253 34.456 284.853 30.648L287.861 28.6H290.357V23.8H289.717C287.829 23.8 285.749 23.512 284.053 23.064L277.877 21.464C275.861 20.952 275.221 20.824 274.549 20.824C271.893 20.824 270.581 22.2 270.581 25.208V27.672H274.261V25.272L279.093 26.456L284.213 27.544V27.704L283.029 28.28C279.349 30.072 276.821 30.2 272.021 30.2H269.812L268.852 31.16V35ZM278.26 18.264H278.901C279.989 18.264 280.789 17.624 280.789 16.12C280.789 14.616 279.989 13.976 278.901 13.976H278.26C277.173 13.976 276.373 14.616 276.373 16.12C276.373 17.624 277.173 18.264 278.26 18.264Z" fill="white"/>
<path opacity="0.7" d="M34.7175 62.8039H38.5575V51.9879C38.5575 49.0119 38.8135 48.1159 39.9015 47.6359L40.6375 47.3159L40.7655 47.4759C40.2855 48.1159 40.0295 48.8199 40.0295 49.5879C40.0295 51.6359 41.7575 53.0759 44.3495 53.0759H49.7575V50.3879L49.9495 50.3559C51.0375 52.2119 52.4775 53.0759 55.2935 53.0759L56.2535 52.1159V48.2759H55.2935C53.8855 48.2759 53.3095 47.9559 52.8295 46.6439L50.3015 39.8599H46.0775L39.6775 42.8999C35.7415 44.7559 34.7175 46.5479 34.7175 51.9879V62.8039ZM42.4615 46.9639C42.4615 46.2919 42.9415 45.8439 44.0615 45.3959L47.4215 44.0519L49.0215 48.2759H44.3175C43.1655 48.2759 42.4615 47.8279 42.4615 46.9639ZM84.858 53.0759L85.818 52.1159V48.2759H84.858C84.346 48.2759 83.834 48.2439 83.29 48.1799C83.45 47.5399 83.514 46.8359 83.514 46.0679C83.514 41.1719 80.986 38.2599 75.962 38.2599C71.61 38.2599 68.442 40.2759 65.466 45.4919L64.058 47.9239C63.546 47.5719 63.29 46.9639 63.29 46.0359V44.0199H59.77V46.0359C59.77 47.5719 58.97 48.2759 57.21 48.2759H56.25L55.29 49.2359V53.0759C58.042 53.0759 59.418 51.7319 59.994 48.7559H60.186C60.762 51.7319 62.458 53.0759 65.85 53.0759H75.002C77.53 53.0759 79.45 52.6599 80.826 51.7959C82.01 52.7559 83.354 53.0759 84.858 53.0759ZM75.002 48.2759H66.97L66.874 48.0839L68.25 46.0039C69.882 43.5399 71.642 43.0599 75.482 43.0599H76.442C79.194 43.0599 80.314 43.9559 80.314 45.7799C80.314 47.7959 79.066 48.2759 75.002 48.2759ZM84.8525 53.0759H88.0205C92.1165 53.0759 95.2525 52.5319 100.853 48.7239L103.861 46.6759H106.357V41.8759H105.717C103.829 41.8759 101.749 41.5879 100.053 41.1399L93.8765 39.5399C91.8605 39.0279 91.2205 38.8999 90.5485 38.8999C87.8925 38.8999 86.5805 40.2759 86.5805 43.2839V45.7479H90.2605V43.3479L95.0925 44.5319L100.213 45.6199V45.7799L99.0285 46.3559C95.3485 48.1479 92.8205 48.2759 88.0205 48.2759H85.8125L84.8525 49.2359V53.0759ZM94.2605 36.3399H94.9005C95.9885 36.3399 96.7885 35.6999 96.7885 34.1959C96.7885 32.6919 95.9885 32.0519 94.9005 32.0519H94.2605C93.1725 32.0519 92.3725 32.6919 92.3725 34.1959C92.3725 35.6999 93.1725 36.3399 94.2605 36.3399Z" fill="white"/>
<path opacity="0.7" d="M126.718 62.8039H130.558V51.9879C130.558 49.0119 130.814 48.1159 131.902 47.6359L132.638 47.3159L132.766 47.4759C132.286 48.1159 132.03 48.8199 132.03 49.5879C132.03 51.6359 133.758 53.0759 136.35 53.0759H141.758V50.3879L141.95 50.3559C143.038 52.2119 144.478 53.0759 147.294 53.0759L148.254 52.1159V48.2759H147.294C145.886 48.2759 145.31 47.9559 144.83 46.6439L142.302 39.8599H138.078L131.678 42.8999C127.742 44.7559 126.718 46.5479 126.718 51.9879V62.8039ZM134.462 46.9639C134.462 46.2919 134.942 45.8439 136.062 45.3959L139.422 44.0519L141.022 48.2759H136.318C135.166 48.2759 134.462 47.8279 134.462 46.9639ZM176.858 53.0759L177.818 52.1159V48.2759H176.858C176.346 48.2759 175.834 48.2439 175.29 48.1799C175.45 47.5399 175.514 46.8359 175.514 46.0679C175.514 41.1719 172.986 38.2599 167.962 38.2599C163.61 38.2599 160.442 40.2759 157.466 45.4919L156.058 47.9239C155.546 47.5719 155.29 46.9639 155.29 46.0359V44.0199H151.77V46.0359C151.77 47.5719 150.97 48.2759 149.21 48.2759H148.25L147.29 49.2359V53.0759C150.042 53.0759 151.418 51.7319 151.994 48.7559H152.186C152.762 51.7319 154.458 53.0759 157.85 53.0759H167.002C169.53 53.0759 171.45 52.6599 172.826 51.7959C174.01 52.7559 175.354 53.0759 176.858 53.0759ZM167.002 48.2759H158.97L158.874 48.0839L160.25 46.0039C161.882 43.5399 163.642 43.0599 167.482 43.0599H168.442C171.194 43.0599 172.314 43.9559 172.314 45.7799C172.314 47.7959 171.066 48.2759 167.002 48.2759ZM176.852 53.0759H180.021C184.117 53.0759 187.253 52.5319 192.853 48.7239L195.861 46.6759H198.357V41.8759H197.717C195.829 41.8759 193.749 41.5879 192.053 41.1399L185.877 39.5399C183.861 39.0279 183.221 38.8999 182.549 38.8999C179.893 38.8999 178.581 40.2759 178.581 43.2839V45.7479H182.261V43.3479L187.093 44.5319L192.213 45.6199V45.7799L191.029 46.3559C187.349 48.1479 184.821 48.2759 180.021 48.2759H177.812L176.852 49.2359V53.0759ZM186.26 36.3399H186.901C187.989 36.3399 188.789 35.6999 188.789 34.1959C188.789 32.6919 187.989 32.0519 186.901 32.0519H186.26C185.173 32.0519 184.373 32.6919 184.373 34.1959C184.373 35.6999 185.173 36.3399 186.26 36.3399Z" fill="white"/>
<path opacity="0.7" d="M218.718 62.8039H222.558V51.9879C222.558 49.0119 222.814 48.1159 223.902 47.6359L224.638 47.3159L224.766 47.4759C224.286 48.1159 224.03 48.8199 224.03 49.5879C224.03 51.6359 225.758 53.0759 228.35 53.0759H233.758V50.3879L233.95 50.3559C235.038 52.2119 236.478 53.0759 239.294 53.0759L240.254 52.1159V48.2759H239.294C237.886 48.2759 237.31 47.9559 236.83 46.6439L234.302 39.8599H230.078L223.678 42.8999C219.742 44.7559 218.718 46.5479 218.718 51.9879V62.8039ZM226.462 46.9639C226.462 46.2919 226.942 45.8439 228.062 45.3959L231.422 44.0519L233.022 48.2759H228.318C227.166 48.2759 226.462 47.8279 226.462 46.9639ZM268.858 53.0759L269.818 52.1159V48.2759H268.858C268.346 48.2759 267.834 48.2439 267.29 48.1799C267.45 47.5399 267.514 46.8359 267.514 46.0679C267.514 41.1719 264.986 38.2599 259.962 38.2599C255.61 38.2599 252.442 40.2759 249.466 45.4919L248.058 47.9239C247.546 47.5719 247.29 46.9639 247.29 46.0359V44.0199H243.77V46.0359C243.77 47.5719 242.97 48.2759 241.21 48.2759H240.25L239.29 49.2359V53.0759C242.042 53.0759 243.418 51.7319 243.994 48.7559H244.186C244.762 51.7319 246.458 53.0759 249.85 53.0759H259.002C261.53 53.0759 263.45 52.6599 264.826 51.7959C266.01 52.7559 267.354 53.0759 268.858 53.0759ZM259.002 48.2759H250.97L250.874 48.0839L252.25 46.0039C253.882 43.5399 255.642 43.0599 259.482 43.0599H260.442C263.194 43.0599 264.314 43.9559 264.314 45.7799C264.314 47.7959 263.066 48.2759 259.002 48.2759ZM268.852 53.0759H272.021C276.117 53.0759 279.253 52.5319 284.853 48.7239L287.861 46.6759H290.357V41.8759H289.717C287.829 41.8759 285.749 41.5879 284.053 41.1399L277.877 39.5399C275.861 39.0279 275.221 38.8999 274.549 38.8999C271.893 38.8999 270.581 40.2759 270.581 43.2839V45.7479H274.261V43.3479L279.093 44.5319L284.213 45.6199V45.7799L283.029 46.3559C279.349 48.1479 276.821 48.2759 272.021 48.2759H269.812L268.852 49.2359V53.0759ZM278.26 36.3399H278.901C279.989 36.3399 280.789 35.6999 280.789 34.1959C280.789 32.6919 279.989 32.0519 278.901 32.0519H278.26C277.173 32.0519 276.373 32.6919 276.373 34.1959C276.373 35.6999 277.173 36.3399 278.26 36.3399Z" fill="white"/>
<path opacity="0.3" d="M34.7175 80.1267H38.5575V69.3107C38.5575 66.3347 38.8135 65.4387 39.9015 64.9587L40.6375 64.6387L40.7655 64.7987C40.2855 65.4387 40.0295 66.1427 40.0295 66.9107C40.0295 68.9587 41.7575 70.3987 44.3495 70.3987H49.7575V67.7107L49.9495 67.6787C51.0375 69.5347 52.4775 70.3987 55.2935 70.3987L56.2535 69.4387V65.5987H55.2935C53.8855 65.5987 53.3095 65.2787 52.8295 63.9667L50.3015 57.1827H46.0775L39.6775 60.2227C35.7415 62.0787 34.7175 63.8707 34.7175 69.3107V80.1267ZM42.4615 64.2867C42.4615 63.6147 42.9415 63.1667 44.0615 62.7187L47.4215 61.3747L49.0215 65.5987H44.3175C43.1655 65.5987 42.4615 65.1507 42.4615 64.2867ZM84.858 70.3987L85.818 69.4387V65.5987H84.858C84.346 65.5987 83.834 65.5667 83.29 65.5027C83.45 64.8627 83.514 64.1587 83.514 63.3907C83.514 58.4947 80.986 55.5827 75.962 55.5827C71.61 55.5827 68.442 57.5987 65.466 62.8147L64.058 65.2467C63.546 64.8947 63.29 64.2867 63.29 63.3587V61.3427H59.77V63.3587C59.77 64.8947 58.97 65.5987 57.21 65.5987H56.25L55.29 66.5587V70.3987C58.042 70.3987 59.418 69.0547 59.994 66.0787H60.186C60.762 69.0547 62.458 70.3987 65.85 70.3987H75.002C77.53 70.3987 79.45 69.9827 80.826 69.1187C82.01 70.0787 83.354 70.3987 84.858 70.3987ZM75.002 65.5987H66.97L66.874 65.4067L68.25 63.3267C69.882 60.8627 71.642 60.3827 75.482 60.3827H76.442C79.194 60.3827 80.314 61.2787 80.314 63.1027C80.314 65.1187 79.066 65.5987 75.002 65.5987ZM84.8525 70.3987H88.0205C92.1165 70.3987 95.2525 69.8547 100.853 66.0467L103.861 63.9987H106.357V59.1987H105.717C103.829 59.1987 101.749 58.9107 100.053 58.4627L93.8765 56.8627C91.8605 56.3507 91.2205 56.2227 90.5485 56.2227C87.8925 56.2227 86.5805 57.5987 86.5805 60.6067V63.0707H90.2605V60.6707L95.0925 61.8547L100.213 62.9427V63.1027L99.0285 63.6787C95.3485 65.4707 92.8205 65.5987 88.0205 65.5987H85.8125L84.8525 66.5587V70.3987ZM94.2605 53.6627H94.9005C95.9885 53.6627 96.7885 53.0227 96.7885 51.5187C96.7885 50.0147 95.9885 49.3747 94.9005 49.3747H94.2605C93.1725 49.3747 92.3725 50.0147 92.3725 51.5187C92.3725 53.0227 93.1725 53.6627 94.2605 53.6627Z" fill="white"/>
<path opacity="0.3" d="M126.718 80.1267H130.558V69.3107C130.558 66.3347 130.814 65.4387 131.902 64.9587L132.638 64.6387L132.766 64.7987C132.286 65.4387 132.03 66.1427 132.03 66.9107C132.03 68.9587 133.758 70.3987 136.35 70.3987H141.758V67.7107L141.95 67.6787C143.038 69.5347 144.478 70.3987 147.294 70.3987L148.254 69.4387V65.5987H147.294C145.886 65.5987 145.31 65.2787 144.83 63.9667L142.302 57.1827H138.078L131.678 60.2227C127.742 62.0787 126.718 63.8707 126.718 69.3107V80.1267ZM134.462 64.2867C134.462 63.6147 134.942 63.1667 136.062 62.7187L139.422 61.3747L141.022 65.5987H136.318C135.166 65.5987 134.462 65.1507 134.462 64.2867ZM176.858 70.3987L177.818 69.4387V65.5987H176.858C176.346 65.5987 175.834 65.5667 175.29 65.5027C175.45 64.8627 175.514 64.1587 175.514 63.3907C175.514 58.4947 172.986 55.5827 167.962 55.5827C163.61 55.5827 160.442 57.5987 157.466 62.8147L156.058 65.2467C155.546 64.8947 155.29 64.2867 155.29 63.3587V61.3427H151.77V63.3587C151.77 64.8947 150.97 65.5987 149.21 65.5987H148.25L147.29 66.5587V70.3987C150.042 70.3987 151.418 69.0547 151.994 66.0787H152.186C152.762 69.0547 154.458 70.3987 157.85 70.3987H167.002C169.53 70.3987 171.45 69.9827 172.826 69.1187C174.01 70.0787 175.354 70.3987 176.858 70.3987ZM167.002 65.5987H158.97L158.874 65.4067L160.25 63.3267C161.882 60.8627 163.642 60.3827 167.482 60.3827H168.442C171.194 60.3827 172.314 61.2787 172.314 63.1027C172.314 65.1187 171.066 65.5987 167.002 65.5987ZM176.852 70.3987H180.021C184.117 70.3987 187.253 69.8547 192.853 66.0467L195.861 63.9987H198.357V59.1987H197.717C195.829 59.1987 193.749 58.9107 192.053 58.4627L185.877 56.8627C183.861 56.3507 183.221 56.2227 182.549 56.2227C179.893 56.2227 178.581 57.5987 178.581 60.6067V63.0707H182.261V60.6707L187.093 61.8547L192.213 62.9427V63.1027L191.029 63.6787C187.349 65.4707 184.821 65.5987 180.021 65.5987H177.812L176.852 66.5587V70.3987ZM186.26 53.6627H186.901C187.989 53.6627 188.789 53.0227 188.789 51.5187C188.789 50.0147 187.989 49.3747 186.901 49.3747H186.26C185.173 49.3747 184.373 50.0147 184.373 51.5187C184.373 53.0227 185.173 53.6627 186.26 53.6627Z" fill="white"/>
<path opacity="0.3" d="M218.718 80.1267H222.558V69.3107C222.558 66.3347 222.814 65.4387 223.902 64.9587L224.638 64.6387L224.766 64.7987C224.286 65.4387 224.03 66.1427 224.03 66.9107C224.03 68.9587 225.758 70.3987 228.35 70.3987H233.758V67.7107L233.95 67.6787C235.038 69.5347 236.478 70.3987 239.294 70.3987L240.254 69.4387V65.5987H239.294C237.886 65.5987 237.31 65.2787 236.83 63.9667L234.302 57.1827H230.078L223.678 60.2227C219.742 62.0787 218.718 63.8707 218.718 69.3107V80.1267ZM226.462 64.2867C226.462 63.6147 226.942 63.1667 228.062 62.7187L231.422 61.3747L233.022 65.5987H228.318C227.166 65.5987 226.462 65.1507 226.462 64.2867ZM268.858 70.3987L269.818 69.4387V65.5987H268.858C268.346 65.5987 267.834 65.5667 267.29 65.5027C267.45 64.8627 267.514 64.1587 267.514 63.3907C267.514 58.4947 264.986 55.5827 259.962 55.5827C255.61 55.5827 252.442 57.5987 249.466 62.8147L248.058 65.2467C247.546 64.8947 247.29 64.2867 247.29 63.3587V61.3427H243.77V63.3587C243.77 64.8947 242.97 65.5987 241.21 65.5987H240.25L239.29 66.5587V70.3987C242.042 70.3987 243.418 69.0547 243.994 66.0787H244.186C244.762 69.0547 246.458 70.3987 249.85 70.3987H259.002C261.53 70.3987 263.45 69.9827 264.826 69.1187C266.01 70.0787 267.354 70.3987 268.858 70.3987ZM259.002 65.5987H250.97L250.874 65.4067L252.25 63.3267C253.882 60.8627 255.642 60.3827 259.482 60.3827H260.442C263.194 60.3827 264.314 61.2787 264.314 63.1027C264.314 65.1187 263.066 65.5987 259.002 65.5987ZM268.852 70.3987H272.021C276.117 70.3987 279.253 69.8547 284.853 66.0467L287.861 63.9987H290.357V59.1987H289.717C287.829 59.1987 285.749 58.9107 284.053 58.4627L277.877 56.8627C275.861 56.3507 275.221 56.2227 274.549 56.2227C271.893 56.2227 270.581 57.5987 270.581 60.6067V63.0707H274.261V60.6707L279.093 61.8547L284.213 62.9427V63.1027L283.029 63.6787C279.349 65.4707 276.821 65.5987 272.021 65.5987H269.812L268.852 66.5587V70.3987ZM278.26 53.6627H278.901C279.989 53.6627 280.789 53.0227 280.789 51.5187C280.789 50.0147 279.989 49.3747 278.901 49.3747H278.26C277.173 49.3747 276.373 50.0147 276.373 51.5187C276.373 53.0227 277.173 53.6627 278.26 53.6627Z" fill="white"/>
<path opacity="0.2" d="M34.7175 98.9558H38.5575V88.1398C38.5575 85.1638 38.8135 84.2678 39.9015 83.7878L40.6375 83.4678L40.7655 83.6278C40.2855 84.2678 40.0295 84.9718 40.0295 85.7398C40.0295 87.7878 41.7575 89.2278 44.3495 89.2278H49.7575V86.5398L49.9495 86.5078C51.0375 88.3638 52.4775 89.2278 55.2935 89.2278L56.2535 88.2678V84.4278H55.2935C53.8855 84.4278 53.3095 84.1078 52.8295 82.7958L50.3015 76.0118H46.0775L39.6775 79.0518C35.7415 80.9078 34.7175 82.6998 34.7175 88.1398V98.9558ZM42.4615 83.1158C42.4615 82.4438 42.9415 81.9958 44.0615 81.5478L47.4215 80.2038L49.0215 84.4278H44.3175C43.1655 84.4278 42.4615 83.9798 42.4615 83.1158ZM84.858 89.2278L85.818 88.2678V84.4278H84.858C84.346 84.4278 83.834 84.3958 83.29 84.3318C83.45 83.6918 83.514 82.9878 83.514 82.2198C83.514 77.3238 80.986 74.4118 75.962 74.4118C71.61 74.4118 68.442 76.4278 65.466 81.6438L64.058 84.0758C63.546 83.7238 63.29 83.1158 63.29 82.1878V80.1718H59.77V82.1878C59.77 83.7238 58.97 84.4278 57.21 84.4278H56.25L55.29 85.3878V89.2278C58.042 89.2278 59.418 87.8838 59.994 84.9078H60.186C60.762 87.8838 62.458 89.2278 65.85 89.2278H75.002C77.53 89.2278 79.45 88.8118 80.826 87.9478C82.01 88.9078 83.354 89.2278 84.858 89.2278ZM75.002 84.4278H66.97L66.874 84.2358L68.25 82.1558C69.882 79.6918 71.642 79.2118 75.482 79.2118H76.442C79.194 79.2118 80.314 80.1078 80.314 81.9318C80.314 83.9478 79.066 84.4278 75.002 84.4278ZM84.8525 89.2278H88.0205C92.1165 89.2278 95.2525 88.6838 100.853 84.8758L103.861 82.8278H106.357V78.0278H105.717C103.829 78.0278 101.749 77.7398 100.053 77.2918L93.8765 75.6918C91.8605 75.1798 91.2205 75.0518 90.5485 75.0518C87.8925 75.0518 86.5805 76.4278 86.5805 79.4358V81.8998H90.2605V79.4998L95.0925 80.6838L100.213 81.7718V81.9318L99.0285 82.5078C95.3485 84.2998 92.8205 84.4278 88.0205 84.4278H85.8125L84.8525 85.3878V89.2278ZM94.2605 72.4918H94.9005C95.9885 72.4918 96.7885 71.8518 96.7885 70.3478C96.7885 68.8438 95.9885 68.2038 94.9005 68.2038H94.2605C93.1725 68.2038 92.3725 68.8438 92.3725 70.3478C92.3725 71.8518 93.1725 72.4918 94.2605 72.4918Z" fill="white"/>
<path opacity="0.2" d="M126.718 98.9558H130.558V88.1398C130.558 85.1638 130.814 84.2678 131.902 83.7878L132.638 83.4678L132.766 83.6278C132.286 84.2678 132.03 84.9718 132.03 85.7398C132.03 87.7878 133.758 89.2278 136.35 89.2278H141.758V86.5398L141.95 86.5078C143.038 88.3638 144.478 89.2278 147.294 89.2278L148.254 88.2678V84.4278H147.294C145.886 84.4278 145.31 84.1078 144.83 82.7958L142.302 76.0118H138.078L131.678 79.0518C127.742 80.9078 126.718 82.6998 126.718 88.1398V98.9558ZM134.462 83.1158C134.462 82.4438 134.942 81.9958 136.062 81.5478L139.422 80.2038L141.022 84.4278H136.318C135.166 84.4278 134.462 83.9798 134.462 83.1158ZM176.858 89.2278L177.818 88.2678V84.4278H176.858C176.346 84.4278 175.834 84.3958 175.29 84.3318C175.45 83.6918 175.514 82.9878 175.514 82.2198C175.514 77.3238 172.986 74.4118 167.962 74.4118C163.61 74.4118 160.442 76.4278 157.466 81.6438L156.058 84.0758C155.546 83.7238 155.29 83.1158 155.29 82.1878V80.1718H151.77V82.1878C151.77 83.7238 150.97 84.4278 149.21 84.4278H148.25L147.29 85.3878V89.2278C150.042 89.2278 151.418 87.8838 151.994 84.9078H152.186C152.762 87.8838 154.458 89.2278 157.85 89.2278H167.002C169.53 89.2278 171.45 88.8118 172.826 87.9478C174.01 88.9078 175.354 89.2278 176.858 89.2278ZM167.002 84.4278H158.97L158.874 84.2358L160.25 82.1558C161.882 79.6918 163.642 79.2118 167.482 79.2118H168.442C171.194 79.2118 172.314 80.1078 172.314 81.9318C172.314 83.9478 171.066 84.4278 167.002 84.4278ZM176.852 89.2278H180.021C184.117 89.2278 187.253 88.6838 192.853 84.8758L195.861 82.8278H198.357V78.0278H197.717C195.829 78.0278 193.749 77.7398 192.053 77.2918L185.877 75.6918C183.861 75.1798 183.221 75.0518 182.549 75.0518C179.893 75.0518 178.581 76.4278 178.581 79.4358V81.8998H182.261V79.4998L187.093 80.6838L192.213 81.7718V81.9318L191.029 82.5078C187.349 84.2998 184.821 84.4278 180.021 84.4278H177.812L176.852 85.3878V89.2278ZM186.26 72.4918H186.901C187.989 72.4918 188.789 71.8518 188.789 70.3478C188.789 68.8438 187.989 68.2038 186.901 68.2038H186.26C185.173 68.2038 184.373 68.8438 184.373 70.3478C184.373 71.8518 185.173 72.4918 186.26 72.4918Z" fill="white"/>
<path opacity="0.2" d="M218.718 98.9558H222.558V88.1398C222.558 85.1638 222.814 84.2678 223.902 83.7878L224.638 83.4678L224.766 83.6278C224.286 84.2678 224.03 84.9718 224.03 85.7398C224.03 87.7878 225.758 89.2278 228.35 89.2278H233.758V86.5398L233.95 86.5078C235.038 88.3638 236.478 89.2278 239.294 89.2278L240.254 88.2678V84.4278H239.294C237.886 84.4278 237.31 84.1078 236.83 82.7958L234.302 76.0118H230.078L223.678 79.0518C219.742 80.9078 218.718 82.6998 218.718 88.1398V98.9558ZM226.462 83.1158C226.462 82.4438 226.942 81.9958 228.062 81.5478L231.422 80.2038L233.022 84.4278H228.318C227.166 84.4278 226.462 83.9798 226.462 83.1158ZM268.858 89.2278L269.818 88.2678V84.4278H268.858C268.346 84.4278 267.834 84.3958 267.29 84.3318C267.45 83.6918 267.514 82.9878 267.514 82.2198C267.514 77.3238 264.986 74.4118 259.962 74.4118C255.61 74.4118 252.442 76.4278 249.466 81.6438L248.058 84.0758C247.546 83.7238 247.29 83.1158 247.29 82.1878V80.1718H243.77V82.1878C243.77 83.7238 242.97 84.4278 241.21 84.4278H240.25L239.29 85.3878V89.2278C242.042 89.2278 243.418 87.8838 243.994 84.9078H244.186C244.762 87.8838 246.458 89.2278 249.85 89.2278H259.002C261.53 89.2278 263.45 88.8118 264.826 87.9478C266.01 88.9078 267.354 89.2278 268.858 89.2278ZM259.002 84.4278H250.97L250.874 84.2358L252.25 82.1558C253.882 79.6918 255.642 79.2118 259.482 79.2118H260.442C263.194 79.2118 264.314 80.1078 264.314 81.9318C264.314 83.9478 263.066 84.4278 259.002 84.4278ZM268.852 89.2278H272.021C276.117 89.2278 279.253 88.6838 284.853 84.8758L287.861 82.8278H290.357V78.0278H289.717C287.829 78.0278 285.749 77.7398 284.053 77.2918L277.877 75.6918C275.861 75.1798 275.221 75.0518 274.549 75.0518C271.893 75.0518 270.581 76.4278 270.581 79.4358V81.8998H274.261V79.4998L279.093 80.6838L284.213 81.7718V81.9318L283.029 82.5078C279.349 84.2998 276.821 84.4278 272.021 84.4278H269.812L268.852 85.3878V89.2278ZM278.26 72.4918H278.901C279.989 72.4918 280.789 71.8518 280.789 70.3478C280.789 68.8438 279.989 68.2038 278.901 68.2038H278.26C277.173 68.2038 276.373 68.8438 276.373 70.3478C276.373 71.8518 277.173 72.4918 278.26 72.4918Z" fill="white"/>
<path opacity="0.1" d="M34.7175 116.279H38.5575V105.463C38.5575 102.487 38.8135 101.591 39.9015 101.111L40.6375 100.791L40.7655 100.951C40.2855 101.591 40.0295 102.295 40.0295 103.063C40.0295 105.111 41.7575 106.551 44.3495 106.551H49.7575V103.863L49.9495 103.831C51.0375 105.687 52.4775 106.551 55.2935 106.551L56.2535 105.591V101.751H55.2935C53.8855 101.751 53.3095 101.431 52.8295 100.119L50.3015 93.3347H46.0775L39.6775 96.3747C35.7415 98.2307 34.7175 100.023 34.7175 105.463V116.279ZM42.4615 100.439C42.4615 99.7667 42.9415 99.3187 44.0615 98.8707L47.4215 97.5267L49.0215 101.751H44.3175C43.1655 101.751 42.4615 101.303 42.4615 100.439ZM84.858 106.551L85.818 105.591V101.751H84.858C84.346 101.751 83.834 101.719 83.29 101.655C83.45 101.015 83.514 100.311 83.514 99.5427C83.514 94.6467 80.986 91.7347 75.962 91.7347C71.61 91.7347 68.442 93.7507 65.466 98.9667L64.058 101.399C63.546 101.047 63.29 100.439 63.29 99.5107V97.4947H59.77V99.5107C59.77 101.047 58.97 101.751 57.21 101.751H56.25L55.29 102.711V106.551C58.042 106.551 59.418 105.207 59.994 102.231H60.186C60.762 105.207 62.458 106.551 65.85 106.551H75.002C77.53 106.551 79.45 106.135 80.826 105.271C82.01 106.231 83.354 106.551 84.858 106.551ZM75.002 101.751H66.97L66.874 101.559L68.25 99.4787C69.882 97.0147 71.642 96.5347 75.482 96.5347H76.442C79.194 96.5347 80.314 97.4307 80.314 99.2547C80.314 101.271 79.066 101.751 75.002 101.751ZM84.8525 106.551H88.0205C92.1165 106.551 95.2525 106.007 100.853 102.199L103.861 100.151H106.357V95.3507H105.717C103.829 95.3507 101.749 95.0627 100.053 94.6147L93.8765 93.0147C91.8605 92.5027 91.2205 92.3747 90.5485 92.3747C87.8925 92.3747 86.5805 93.7507 86.5805 96.7587V99.2227H90.2605V96.8227L95.0925 98.0067L100.213 99.0947V99.2547L99.0285 99.8307C95.3485 101.623 92.8205 101.751 88.0205 101.751H85.8125L84.8525 102.711V106.551ZM94.2605 89.8147H94.9005C95.9885 89.8147 96.7885 89.1747 96.7885 87.6707C96.7885 86.1667 95.9885 85.5267 94.9005 85.5267H94.2605C93.1725 85.5267 92.3725 86.1667 92.3725 87.6707C92.3725 89.1747 93.1725 89.8147 94.2605 89.8147Z" fill="white"/>
<path opacity="0.1" d="M126.718 116.279H130.558V105.463C130.558 102.487 130.814 101.591 131.902 101.111L132.638 100.791L132.766 100.951C132.286 101.591 132.03 102.295 132.03 103.063C132.03 105.111 133.758 106.551 136.35 106.551H141.758V103.863L141.95 103.831C143.038 105.687 144.478 106.551 147.294 106.551L148.254 105.591V101.751H147.294C145.886 101.751 145.31 101.431 144.83 100.119L142.302 93.3347H138.078L131.678 96.3747C127.742 98.2307 126.718 100.023 126.718 105.463V116.279ZM134.462 100.439C134.462 99.7667 134.942 99.3187 136.062 98.8707L139.422 97.5267L141.022 101.751H136.318C135.166 101.751 134.462 101.303 134.462 100.439ZM176.858 106.551L177.818 105.591V101.751H176.858C176.346 101.751 175.834 101.719 175.29 101.655C175.45 101.015 175.514 100.311 175.514 99.5427C175.514 94.6467 172.986 91.7347 167.962 91.7347C163.61 91.7347 160.442 93.7507 157.466 98.9667L156.058 101.399C155.546 101.047 155.29 100.439 155.29 99.5107V97.4947H151.77V99.5107C151.77 101.047 150.97 101.751 149.21 101.751H148.25L147.29 102.711V106.551C150.042 106.551 151.418 105.207 151.994 102.231H152.186C152.762 105.207 154.458 106.551 157.85 106.551H167.002C169.53 106.551 171.45 106.135 172.826 105.271C174.01 106.231 175.354 106.551 176.858 106.551ZM167.002 101.751H158.97L158.874 101.559L160.25 99.4787C161.882 97.0147 163.642 96.5347 167.482 96.5347H168.442C171.194 96.5347 172.314 97.4307 172.314 99.2547C172.314 101.271 171.066 101.751 167.002 101.751ZM176.852 106.551H180.021C184.117 106.551 187.253 106.007 192.853 102.199L195.861 100.151H198.357V95.3507H197.717C195.829 95.3507 193.749 95.0627 192.053 94.6147L185.877 93.0147C183.861 92.5027 183.221 92.3747 182.549 92.3747C179.893 92.3747 178.581 93.7507 178.581 96.7587V99.2227H182.261V96.8227L187.093 98.0067L192.213 99.0947V99.2547L191.029 99.8307C187.349 101.623 184.821 101.751 180.021 101.751H177.812L176.852 102.711V106.551ZM186.26 89.8147H186.901C187.989 89.8147 188.789 89.1747 188.789 87.6707C188.789 86.1667 187.989 85.5267 186.901 85.5267H186.26C185.173 85.5267 184.373 86.1667 184.373 87.6707C184.373 89.1747 185.173 89.8147 186.26 89.8147Z" fill="white"/>
<path opacity="0.1" d="M218.718 116.279H222.558V105.463C222.558 102.487 222.814 101.591 223.902 101.111L224.638 100.791L224.766 100.951C224.286 101.591 224.03 102.295 224.03 103.063C224.03 105.111 225.758 106.551 228.35 106.551H233.758V103.863L233.95 103.831C235.038 105.687 236.478 106.551 239.294 106.551L240.254 105.591V101.751H239.294C237.886 101.751 237.31 101.431 236.83 100.119L234.302 93.3347H230.078L223.678 96.3747C219.742 98.2307 218.718 100.023 218.718 105.463V116.279ZM226.462 100.439C226.462 99.7667 226.942 99.3187 228.062 98.8707L231.422 97.5267L233.022 101.751H228.318C227.166 101.751 226.462 101.303 226.462 100.439ZM268.858 106.551L269.818 105.591V101.751H268.858C268.346 101.751 267.834 101.719 267.29 101.655C267.45 101.015 267.514 100.311 267.514 99.5427C267.514 94.6467 264.986 91.7347 259.962 91.7347C255.61 91.7347 252.442 93.7507 249.466 98.9667L248.058 101.399C247.546 101.047 247.29 100.439 247.29 99.5107V97.4947H243.77V99.5107C243.77 101.047 242.97 101.751 241.21 101.751H240.25L239.29 102.711V106.551C242.042 106.551 243.418 105.207 243.994 102.231H244.186C244.762 105.207 246.458 106.551 249.85 106.551H259.002C261.53 106.551 263.45 106.135 264.826 105.271C266.01 106.231 267.354 106.551 268.858 106.551ZM259.002 101.751H250.97L250.874 101.559L252.25 99.4787C253.882 97.0147 255.642 96.5347 259.482 96.5347H260.442C263.194 96.5347 264.314 97.4307 264.314 99.2547C264.314 101.271 263.066 101.751 259.002 101.751ZM268.852 106.551H272.021C276.117 106.551 279.253 106.007 284.853 102.199L287.861 100.151H290.357V95.3507H289.717C287.829 95.3507 285.749 95.0627 284.053 94.6147L277.877 93.0147C275.861 92.5027 275.221 92.3747 274.549 92.3747C271.893 92.3747 270.581 93.7507 270.581 96.7587V99.2227H274.261V96.8227L279.093 98.0067L284.213 99.0947V99.2547L283.029 99.8307C279.349 101.623 276.821 101.751 272.021 101.751H269.812L268.852 102.711V106.551ZM278.26 89.8147H278.901C279.989 89.8147 280.789 89.1747 280.789 87.6707C280.789 86.1667 279.989 85.5267 278.901 85.5267H278.26C277.173 85.5267 276.373 86.1667 276.373 87.6707C276.373 89.1747 277.173 89.8147 278.26 89.8147Z" fill="white"/>
<path d="M805.874 16.116L796.946 20.22L795.902 17.916L804.83 13.776L805.874 16.116ZM805.874 21.588L796.946 25.692L795.902 23.388L804.83 19.248L805.874 21.588ZM804.84 55C802.416 55 800.616 54.424 799.44 53.272C798.264 52.12 797.676 50.248 797.676 47.656V28.36H801.996V46.936C801.996 48.016 802.212 48.736 802.644 49.096C803.076 49.432 803.82 49.6 804.876 49.6H805.956V53.92L804.876 55H804.84ZM804.877 50.68L805.957 49.6H810.637L810.709 49.42L807.217 45.136V39.556C808.417 39.004 809.677 38.584 810.997 38.296C812.341 37.984 813.649 37.828 814.921 37.828C817.705 37.828 819.745 38.32 821.041 39.304C822.337 40.288 822.985 41.836 822.985 43.948C822.985 44.596 822.925 45.172 822.805 45.676C822.685 46.156 822.493 46.612 822.229 47.044C821.989 47.452 821.665 47.848 821.257 48.232C820.873 48.616 820.393 49.036 819.817 49.492L819.853 49.6H824.245V53.92L823.165 55H822.805C821.509 55 820.165 54.856 818.773 54.568C817.405 54.256 816.169 53.752 815.065 53.056C813.961 53.752 812.797 54.256 811.573 54.568C810.349 54.856 809.089 55 807.793 55H804.877V50.68ZM810.673 43.912L815.353 49.42L817.549 47.62C817.885 47.332 818.173 47.092 818.413 46.9C818.653 46.708 818.845 46.528 818.989 46.36C819.133 46.168 819.229 45.988 819.277 45.82C819.349 45.628 819.385 45.4 819.385 45.136C819.385 44.44 819.049 43.948 818.377 43.66C817.729 43.372 816.577 43.228 814.921 43.228C814.177 43.228 813.421 43.276 812.653 43.372C811.885 43.468 811.225 43.576 810.673 43.696V43.912ZM823.158 50.68L824.238 49.6H825.318C827.238 49.6 828.198 48.76 828.198 47.08V41.932H832.158V47.08C832.158 48.76 832.998 49.6 834.678 49.6H836.118V53.92L835.038 55C833.118 55 831.654 54.616 830.646 53.848C829.662 53.056 829.002 51.82 828.666 50.14H828.45C828.114 51.82 827.538 53.056 826.722 53.848C825.906 54.616 824.718 55 823.158 55V50.68ZM832.662 62.74C832.038 62.74 831.522 62.548 831.114 62.164C830.73 61.78 830.538 61.168 830.538 60.328C830.538 59.488 830.73 58.876 831.114 58.492C831.522 58.108 832.038 57.916 832.662 57.916H833.382C834.006 57.916 834.51 58.108 834.894 58.492C835.302 58.876 835.506 59.488 835.506 60.328C835.506 61.168 835.302 61.78 834.894 62.164C834.51 62.548 834.006 62.74 833.382 62.74H832.662ZM826.974 62.74C826.35 62.74 825.834 62.548 825.426 62.164C825.042 61.78 824.85 61.168 824.85 60.328C824.85 59.488 825.042 58.876 825.426 58.492C825.834 58.108 826.35 57.916 826.974 57.916H827.694C828.318 57.916 828.822 58.108 829.206 58.492C829.614 58.876 829.818 59.488 829.818 60.328C829.818 61.168 829.614 61.78 829.206 62.164C828.822 62.548 828.318 62.74 827.694 62.74H826.974ZM835.041 50.68L836.121 49.6H837.201C839.121 49.6 840.081 48.76 840.081 47.08V41.932H844.041V47.08C844.041 48.76 844.881 49.6 846.561 49.6H848.001V53.92L846.921 55C845.001 55 843.537 54.616 842.529 53.848C841.545 53.056 840.885 51.82 840.549 50.14H840.333C839.997 51.82 839.421 53.056 838.605 53.848C837.789 54.616 836.601 55 835.041 55V50.68ZM841.701 62.74C841.077 62.74 840.561 62.548 840.153 62.164C839.769 61.78 839.577 61.168 839.577 60.328C839.577 59.488 839.769 58.876 840.153 58.492C840.561 58.108 841.077 57.916 841.701 57.916H842.421C843.045 57.916 843.549 58.108 843.933 58.492C844.341 58.876 844.545 59.488 844.545 60.328C844.545 61.168 844.341 61.78 843.933 62.164C843.549 62.548 843.045 62.74 842.421 62.74H841.701ZM852.216 52.984C851.664 53.728 850.968 54.256 850.128 54.568C849.312 54.856 848.244 55 846.924 55V50.68L848.004 49.6C848.892 49.6 849.54 49.468 849.948 49.204C850.356 48.94 850.692 48.472 850.956 47.8L851.964 45.316C852.276 44.548 852.624 43.828 853.008 43.156C853.392 42.484 853.848 41.896 854.376 41.392C854.904 40.888 855.492 40.492 856.14 40.204C856.812 39.916 857.58 39.772 858.444 39.772C860.7 39.772 862.392 40.66 863.52 42.436C864.672 44.212 865.248 46.672 865.248 49.816V50.86L861.828 55.936L852.216 52.984ZM854.196 47.98L861.432 50.176V49.816C861.432 48.376 861.084 47.248 860.388 46.432C859.692 45.616 858.744 45.208 857.544 45.208C856.776 45.208 856.104 45.412 855.528 45.82C854.976 46.228 854.556 46.876 854.268 47.764L854.196 47.98ZM890.52 55.432C887.904 55.432 885.696 55.288 883.896 55C882.12 54.712 880.68 54.244 879.576 53.596C878.472 52.924 877.668 52.06 877.164 51.004C876.684 49.948 876.444 48.64 876.444 47.08C876.444 46.12 876.564 45.064 876.804 43.912C877.068 42.76 877.428 41.62 877.884 40.492L881.34 41.5C880.932 42.316 880.608 43.108 880.368 43.876C880.152 44.62 880.044 45.292 880.044 45.892C880.044 46.588 880.188 47.176 880.476 47.656C880.764 48.112 881.232 48.484 881.88 48.772C882.528 49.06 883.38 49.276 884.436 49.42C885.492 49.54 886.8 49.6 888.36 49.6H893.4C894.984 49.6 896.316 49.564 897.396 49.492C898.476 49.42 899.34 49.3 899.988 49.132C900.66 48.94 901.14 48.712 901.428 48.448C901.74 48.16 901.896 47.812 901.896 47.404C901.896 47.044 901.86 46.588 901.788 46.036C901.74 45.46 901.632 44.716 901.464 43.804L900.852 40.456L904.776 39.808L905.316 43.156C905.436 43.804 905.532 44.524 905.604 45.316C905.676 46.108 905.712 46.804 905.712 47.404C905.712 49.012 905.484 50.332 905.028 51.364C904.596 52.396 903.804 53.212 902.652 53.812C901.524 54.412 899.976 54.832 898.008 55.072C896.064 55.312 893.568 55.432 890.52 55.432ZM893.328 41.932C892.704 41.932 892.188 41.74 891.78 41.356C891.396 40.972 891.204 40.36 891.204 39.52C891.204 38.68 891.396 38.068 891.78 37.684C892.188 37.3 892.704 37.108 893.328 37.108H894.048C894.672 37.108 895.176 37.3 895.56 37.684C895.968 38.068 896.172 38.68 896.172 39.52C896.172 40.36 895.968 40.972 895.56 41.356C895.176 41.74 894.672 41.932 894.048 41.932H893.328ZM887.64 41.932C887.016 41.932 886.5 41.74 886.092 41.356C885.708 40.972 885.516 40.36 885.516 39.52C885.516 38.68 885.708 38.068 886.092 37.684C886.5 37.3 887.016 37.108 887.64 37.108H888.36C888.984 37.108 889.488 37.3 889.872 37.684C890.28 38.068 890.484 38.68 890.484 39.52C890.484 40.36 890.28 40.972 889.872 41.356C889.488 41.74 888.984 41.932 888.36 41.932H887.64ZM916.109 55C913.685 55 911.885 54.424 910.709 53.272C909.533 52.12 908.945 50.248 908.945 47.656V28.36H913.265V46.936C913.265 48.016 913.481 48.736 913.913 49.096C914.345 49.432 915.089 49.6 916.145 49.6H917.225V53.92L916.145 55H916.109ZM916.147 50.68L917.227 49.6H919.711C921.055 49.6 922.255 49.588 923.311 49.564C924.391 49.516 925.411 49.42 926.371 49.276C927.331 49.132 928.267 48.916 929.179 48.628C930.091 48.34 931.063 47.944 932.095 47.44L933.427 46.792V46.612L927.667 45.388L922.231 44.056V46.756H918.091V43.984C918.091 42.28 918.451 41.032 919.171 40.24C919.915 39.448 921.043 39.052 922.555 39.052C922.747 39.052 922.939 39.064 923.131 39.088C923.347 39.112 923.587 39.148 923.851 39.196C924.139 39.244 924.475 39.316 924.859 39.412C925.243 39.508 925.723 39.628 926.299 39.772L933.247 41.572C934.207 41.836 935.239 42.04 936.343 42.184C937.447 42.328 938.539 42.4 939.619 42.4H940.339V47.8H937.819C937.843 48.472 938.035 48.94 938.395 49.204C938.779 49.468 939.427 49.6 940.339 49.6H941.419V53.92L940.339 55C938.539 54.976 937.135 54.568 936.127 53.776C935.143 52.96 934.531 51.7 934.291 49.996L934.147 50.104C932.563 51.184 931.135 52.048 929.863 52.696C928.615 53.32 927.427 53.812 926.299 54.172C925.171 54.508 924.079 54.736 923.023 54.856C921.967 54.952 920.863 55 919.711 55H916.147V50.68ZM928.567 62.74C927.943 62.74 927.427 62.548 927.019 62.164C926.635 61.78 926.443 61.168 926.443 60.328C926.443 59.488 926.635 58.876 927.019 58.492C927.427 58.108 927.943 57.916 928.567 57.916H929.287C929.911 57.916 930.415 58.108 930.799 58.492C931.207 58.876 931.411 59.488 931.411 60.328C931.411 61.168 931.207 61.78 930.799 62.164C930.415 62.548 929.911 62.74 929.287 62.74H928.567ZM940.334 50.68L941.414 49.6H942.494C944.414 49.6 945.374 48.76 945.374 47.08V41.932H949.334V47.08C949.334 48.76 950.174 49.6 951.854 49.6H953.294V53.92L952.214 55C950.294 55 948.83 54.616 947.822 53.848C946.838 53.056 946.178 51.82 945.842 50.14H945.626C945.29 51.82 944.714 53.056 943.898 53.848C943.082 54.616 941.894 55 940.334 55V50.68ZM949.838 39.052C949.214 39.052 948.698 38.86 948.29 38.476C947.906 38.092 947.714 37.48 947.714 36.64C947.714 35.8 947.906 35.188 948.29 34.804C948.698 34.42 949.214 34.228 949.838 34.228H950.558C951.182 34.228 951.686 34.42 952.07 34.804C952.478 35.188 952.682 35.8 952.682 36.64C952.682 37.48 952.478 38.092 952.07 38.476C951.686 38.86 951.182 39.052 950.558 39.052H949.838ZM944.15 39.052C943.526 39.052 943.01 38.86 942.602 38.476C942.218 38.092 942.026 37.48 942.026 36.64C942.026 35.8 942.218 35.188 942.602 34.804C943.01 34.42 943.526 34.228 944.15 34.228H944.87C945.494 34.228 945.998 34.42 946.382 34.804C946.79 35.188 946.994 35.8 946.994 36.64C946.994 37.48 946.79 38.092 946.382 38.476C945.998 38.86 945.494 39.052 944.87 39.052H944.15ZM952.217 50.68L953.297 49.6H954.377C956.297 49.6 957.257 48.76 957.257 47.08V41.932H961.217V47.08C961.217 48.76 962.057 49.6 963.737 49.6H965.177V53.92L964.097 55C962.177 55 960.713 54.616 959.705 53.848C958.721 53.056 958.061 51.82 957.725 50.14H957.509C957.173 51.82 956.597 53.056 955.781 53.848C954.965 54.616 953.777 55 952.217 55V50.68ZM958.877 39.052C958.253 39.052 957.737 38.86 957.329 38.476C956.945 38.092 956.753 37.48 956.753 36.64C956.753 35.8 956.945 35.188 957.329 34.804C957.737 34.42 958.253 34.228 958.877 34.228H959.597C960.221 34.228 960.725 34.42 961.109 34.804C961.517 35.188 961.721 35.8 961.721 36.64C961.721 37.48 961.517 38.092 961.109 38.476C960.725 38.86 960.221 39.052 959.597 39.052H958.877ZM973.388 56.836C972.716 56.476 972.116 56.176 971.588 55.936C971.06 55.696 970.544 55.504 970.04 55.36C969.56 55.216 969.068 55.12 968.564 55.072C968.084 55.024 967.532 55 966.908 55H964.1V50.68L965.18 49.6H967.34V28.36H971.66V50.14C972.308 50.332 972.968 50.584 973.64 50.896C974.336 51.208 975.116 51.604 975.98 52.084L977.744 53.056L975.188 57.808L973.388 56.836ZM978.836 28.36H983.156V55H978.836V28.36ZM1005.21 63.64C1001.87 63.64 999.352 62.776 997.648 61.048C995.944 59.344 995.092 56.92 995.092 53.776C995.092 52.696 995.236 51.484 995.524 50.14C995.836 48.772 996.256 47.452 996.784 46.18L1000.24 47.188C999.76 48.22 999.376 49.264 999.088 50.32C998.824 51.376 998.692 52.288 998.692 53.056C998.692 54.568 999.136 55.732 1000.02 56.548C1000.94 57.388 1002.18 57.808 1003.77 57.808H1006.65C1007.58 57.808 1008.38 57.688 1009.02 57.448C1009.67 57.232 1010.19 56.86 1010.57 56.332C1010.98 55.828 1011.27 55.168 1011.44 54.352C1011.63 53.512 1011.72 52.492 1011.72 51.292V28.36H1016.04V49.6H1020.04V53.92L1018.96 55H1015.76C1015.28 57.952 1014.18 60.124 1012.48 61.516C1010.78 62.932 1008.35 63.64 1005.21 63.64ZM1052.21 55C1051.37 55 1050.56 54.904 1049.8 54.712C1049.05 54.496 1048.34 54.112 1047.67 53.56C1046.14 54.52 1043.95 55 1041.12 55H1030.82C1028.9 55 1027.44 54.616 1026.43 53.848C1025.45 53.056 1024.79 51.82 1024.45 50.14H1024.24C1023.9 51.82 1023.32 53.056 1022.51 53.848C1021.69 54.616 1020.5 55 1018.94 55V50.68L1020.02 49.6H1021.1C1023.02 49.6 1023.98 48.76 1023.98 47.08V44.812H1027.94V47.08C1027.94 48.112 1028.23 48.82 1028.81 49.204L1030.39 46.468C1031.23 45.004 1032.08 43.756 1032.95 42.724C1033.84 41.692 1034.76 40.852 1035.72 40.204C1036.68 39.556 1037.69 39.088 1038.74 38.8C1039.82 38.488 1040.98 38.332 1042.2 38.332C1045.03 38.332 1047.16 39.112 1048.57 40.672C1049.99 42.208 1050.7 44.356 1050.7 47.116C1050.7 48.028 1050.61 48.82 1050.44 49.492C1051.04 49.564 1051.63 49.6 1052.21 49.6H1053.29V53.92L1052.21 55ZM1041.12 49.6C1042.27 49.6 1043.22 49.564 1043.96 49.492C1044.73 49.396 1045.34 49.252 1045.8 49.06C1046.28 48.844 1046.62 48.556 1046.81 48.196C1047 47.836 1047.1 47.368 1047.1 46.792C1047.1 45.76 1046.76 44.992 1046.09 44.488C1045.42 43.984 1044.3 43.732 1042.74 43.732H1041.66C1040.58 43.732 1039.63 43.78 1038.82 43.876C1038 43.948 1037.28 44.104 1036.66 44.344C1036.03 44.584 1035.47 44.92 1034.96 45.352C1034.46 45.784 1033.98 46.348 1033.52 47.044L1031.98 49.384L1032.08 49.6H1041.12ZM1040.76 35.452C1040.14 35.452 1039.62 35.26 1039.21 34.876C1038.83 34.492 1038.64 33.88 1038.64 33.04C1038.64 32.2 1038.83 31.588 1039.21 31.204C1039.62 30.82 1040.14 30.628 1040.76 30.628H1041.48C1042.1 30.628 1042.61 30.82 1042.99 31.204C1043.4 31.588 1043.6 32.2 1043.6 33.04C1043.6 33.88 1043.4 34.492 1042.99 34.876C1042.61 35.26 1042.1 35.452 1041.48 35.452H1040.76ZM1052.2 50.68L1053.28 49.6H1060.27C1061.08 49.6 1061.83 49.552 1062.5 49.456C1063.19 49.36 1063.77 49.192 1064.23 48.952C1064.71 48.712 1065.08 48.388 1065.34 47.98C1065.61 47.572 1065.74 47.056 1065.74 46.432V44.776H1065.52C1064.83 46.672 1063.23 47.62 1060.73 47.62C1058.79 47.62 1057.27 47.116 1056.16 46.108C1055.08 45.076 1054.54 43.66 1054.54 41.86C1054.54 40.612 1054.72 39.46 1055.08 38.404C1055.47 37.324 1055.98 36.4 1056.63 35.632C1057.3 34.84 1058.08 34.228 1058.97 33.796C1059.88 33.34 1060.87 33.112 1061.92 33.112C1064.27 33.112 1066.1 34.096 1067.39 36.064C1068.71 38.032 1069.37 40.768 1069.37 44.272C1069.37 46.456 1069.18 48.244 1068.8 49.636C1068.41 51.028 1067.84 52.12 1067.07 52.912C1066.33 53.704 1065.38 54.256 1064.23 54.568C1063.1 54.856 1061.78 55 1060.27 55H1052.2V50.68ZM1061.85 42.94C1062.76 42.94 1063.53 42.904 1064.15 42.832C1064.78 42.736 1065.28 42.592 1065.67 42.4C1065.52 41.224 1065.05 40.288 1064.26 39.592C1063.49 38.872 1062.56 38.512 1061.45 38.512C1060.52 38.512 1059.73 38.764 1059.08 39.268C1058.45 39.748 1058.14 40.372 1058.14 41.14C1058.14 41.788 1058.41 42.256 1058.93 42.544C1059.46 42.808 1060.18 42.94 1061.09 42.94H1061.85ZM1061.56 30.232C1060.94 30.232 1060.42 30.04 1060.01 29.656C1059.63 29.272 1059.44 28.66 1059.44 27.82C1059.44 26.98 1059.63 26.368 1060.01 25.984C1060.42 25.6 1060.94 25.408 1061.56 25.408H1062.28C1062.91 25.408 1063.41 25.6 1063.79 25.984C1064.2 26.368 1064.41 26.98 1064.41 27.82C1064.41 28.66 1064.2 29.272 1063.79 29.656C1063.41 30.04 1062.91 30.232 1062.28 30.232H1061.56ZM1073.17 32.752H1077.49V55H1073.17V32.752ZM1071.04 26.956H1072.56L1072.59 26.776C1072.11 26.248 1071.87 25.612 1071.87 24.868C1071.87 23.86 1072.23 23.032 1072.95 22.384C1073.7 21.712 1074.64 21.376 1075.8 21.376C1076.49 21.376 1077.16 21.52 1077.81 21.808C1078.46 22.096 1079.02 22.492 1079.5 22.996L1077.78 25.408C1077.2 24.832 1076.54 24.544 1075.8 24.544C1075.39 24.544 1075.05 24.64 1074.79 24.832C1074.55 25.024 1074.43 25.252 1074.43 25.516C1074.43 26.308 1075.26 26.704 1076.91 26.704H1079.58V29.872H1071.04V26.956Z" fill="white"/>
<path d="M751.149 90.7667C749.889 90.7667 748.827 90.7007 747.963 90.5687C747.111 90.4367 746.421 90.2267 745.893 89.9387C745.365 89.6507 744.981 89.2727 744.741 88.8047C744.513 88.3247 744.399 87.7427 744.399 87.0587C744.399 86.5787 744.459 86.0867 744.579 85.5827C744.711 85.0787 744.909 84.5207 745.173 83.9087L746.289 84.2507C745.797 85.2707 745.551 86.1467 745.551 86.8787C745.551 87.6107 745.899 88.1507 746.595 88.4987C747.291 88.8347 748.389 89.0027 749.889 89.0027H752.409C753.261 89.0027 753.963 88.9787 754.515 88.9307C755.067 88.8827 755.505 88.7987 755.829 88.6787C756.153 88.5587 756.375 88.3967 756.495 88.1927C756.627 87.9767 756.693 87.7067 756.693 87.3827C756.693 87.1787 756.681 86.9267 756.657 86.6267C756.633 86.3147 756.573 85.9067 756.477 85.4027L756.207 83.9087L757.467 83.7107L757.701 85.2047C757.785 85.7447 757.839 86.1887 757.863 86.5367C757.899 86.8727 757.917 87.1547 757.917 87.3827C757.917 88.0067 757.797 88.5347 757.557 88.9667C757.329 89.3987 756.945 89.7467 756.405 90.0107C755.877 90.2747 755.181 90.4667 754.317 90.5867C753.465 90.7067 752.409 90.7667 751.149 90.7667ZM752.157 83.9087C751.917 83.9087 751.725 83.8427 751.581 83.7107C751.437 83.5667 751.365 83.3387 751.365 83.0267C751.365 82.7147 751.437 82.4927 751.581 82.3607C751.725 82.2167 751.917 82.1447 752.157 82.1447H752.355C752.595 82.1447 752.787 82.2167 752.931 82.3607C753.075 82.4927 753.147 82.7147 753.147 83.0267C753.147 83.3387 753.075 83.5667 752.931 83.7107C752.787 83.8427 752.595 83.9087 752.355 83.9087H752.157ZM749.835 83.9087C749.595 83.9087 749.403 83.8427 749.259 83.7107C749.115 83.5667 749.043 83.3387 749.043 83.0267C749.043 82.7147 749.115 82.4927 749.259 82.3607C749.403 82.2167 749.595 82.1447 749.835 82.1447H750.033C750.273 82.1447 750.465 82.2167 750.609 82.3607C750.753 82.4927 750.825 82.7147 750.825 83.0267C750.825 83.3387 750.753 83.5667 750.609 83.7107C750.465 83.8427 750.273 83.9087 750.033 83.9087H749.835ZM763.207 90.5507C762.631 90.5507 762.139 90.5027 761.731 90.4067C761.335 90.3107 761.011 90.1547 760.759 89.9387C760.519 89.7107 760.345 89.4167 760.237 89.0567C760.129 88.6967 760.075 88.2587 760.075 87.7427V77.2307H761.407V87.7427C761.407 88.1987 761.533 88.5227 761.785 88.7147C762.037 88.9067 762.427 89.0027 762.955 89.0027H763.585V90.1907L763.225 90.5507H763.207ZM765.574 89.5067C765.298 89.8787 764.974 90.1487 764.602 90.3167C764.242 90.4727 763.78 90.5507 763.216 90.5507V89.3627L763.576 89.0027C763.804 89.0027 763.996 88.9727 764.152 88.9127C764.32 88.8527 764.464 88.7627 764.584 88.6427C764.716 88.5107 764.83 88.3427 764.926 88.1387C765.034 87.9227 765.142 87.6707 765.25 87.3827L765.754 86.0507C766.03 85.3307 766.396 84.7787 766.852 84.3947C767.308 83.9987 767.914 83.8007 768.67 83.8007C769.558 83.8007 770.242 84.2027 770.722 85.0067C771.214 85.8107 771.46 86.9267 771.46 88.3547V89.2007L770.398 90.7667L765.574 89.5067ZM766.294 88.0847L770.2 89.1287V88.3547C770.2 87.4187 770.044 86.6867 769.732 86.1587C769.432 85.6187 769.006 85.3487 768.454 85.3487C767.998 85.3487 767.644 85.4867 767.392 85.7627C767.152 86.0387 766.948 86.3867 766.78 86.8067L766.294 88.0847ZM772.889 93.3227H773.843C775.151 93.3227 776.159 93.0767 776.867 92.5847C777.587 92.1047 778.031 91.4267 778.199 90.5507H776.093C775.133 90.5507 774.389 90.2987 773.861 89.7947C773.333 89.2907 773.069 88.5827 773.069 87.6707C773.069 87.1307 773.147 86.6207 773.303 86.1407C773.471 85.6607 773.699 85.2467 773.987 84.8987C774.275 84.5387 774.617 84.2567 775.013 84.0527C775.421 83.8367 775.865 83.7287 776.345 83.7287C777.341 83.7287 778.121 84.1727 778.685 85.0607C779.261 85.9487 779.549 87.1967 779.549 88.8047V89.0027H780.377V90.1907L780.017 90.5507H779.387C779.123 91.9307 778.529 92.9927 777.605 93.7367C776.693 94.4927 775.439 94.8707 773.843 94.8707H772.889V93.3227ZM774.329 87.4907C774.329 88.0187 774.467 88.4027 774.743 88.6427C775.031 88.8827 775.481 89.0027 776.093 89.0027H778.289V88.4447C778.289 87.4727 778.103 86.7047 777.731 86.1407C777.371 85.5647 776.873 85.2767 776.237 85.2767C775.625 85.2767 775.151 85.4807 774.815 85.8887C774.491 86.2967 774.329 86.8307 774.329 87.4907ZM795.537 90.5507C795.081 90.5507 794.697 90.5147 794.385 90.4427C794.085 90.3587 793.809 90.2027 793.557 89.9747C792.933 90.3587 792.057 90.5507 790.929 90.5507H785.601C783.945 90.5507 782.973 89.9627 782.685 88.7867H782.595C782.463 89.4467 782.205 89.9087 781.821 90.1727C781.437 90.4247 780.837 90.5507 780.021 90.5507V89.3627L780.381 89.0027H781.011C782.031 89.0027 782.541 88.4927 782.541 87.4727V86.0687H783.801V87.4727C783.801 88.1927 784.035 88.6547 784.503 88.8587L785.457 87.2567C785.913 86.4647 786.375 85.8107 786.843 85.2947C787.311 84.7667 787.785 84.3467 788.265 84.0347C788.745 83.7227 789.231 83.5007 789.723 83.3687C790.227 83.2367 790.749 83.1707 791.289 83.1707C792.453 83.1707 793.359 83.4947 794.007 84.1427C794.655 84.7787 794.979 85.6607 794.979 86.7887C794.979 87.6287 794.841 88.3247 794.565 88.8767C794.817 88.9607 795.141 89.0027 795.537 89.0027H795.897V90.1907L795.537 90.5507ZM790.929 89.0027C791.829 89.0027 792.519 88.8527 792.999 88.5527C793.479 88.2527 793.719 87.7247 793.719 86.9687C793.719 86.2247 793.527 85.6667 793.143 85.2947C792.771 84.9107 792.243 84.7187 791.559 84.7187H791.019C790.539 84.7187 790.101 84.7667 789.705 84.8627C789.321 84.9467 788.949 85.1027 788.589 85.3307C788.241 85.5467 787.893 85.8527 787.545 86.2487C787.209 86.6327 786.849 87.1187 786.465 87.7067L785.691 88.9127L785.745 89.0027H790.929ZM795.542 89.3627L795.902 89.0027H796.514C797.042 89.0027 797.528 88.9847 797.972 88.9487C798.428 88.9127 798.89 88.8467 799.358 88.7507C799.826 88.6427 800.318 88.4927 800.834 88.3007C801.362 88.1087 801.956 87.8567 802.616 87.5447L804.272 86.7527V86.6807L801.608 86.0867L797.882 85.1687V86.7167H796.622V85.3307C796.622 84.8267 796.76 84.4487 797.036 84.1967C797.324 83.9327 797.684 83.8007 798.116 83.8007C798.248 83.8007 798.404 83.8187 798.584 83.8547C798.776 83.8787 799.07 83.9387 799.466 84.0347L803.858 85.1687C804.518 85.3367 805.07 85.4567 805.514 85.5287C805.958 85.5887 806.342 85.6187 806.666 85.6187H806.954V87.1667H805.586V87.3827C805.586 87.9827 805.718 88.4027 805.982 88.6427C806.246 88.8827 806.654 89.0027 807.206 89.0027H807.836V90.1907L807.476 90.5507C806.948 90.5507 806.498 90.5027 806.126 90.4067C805.754 90.3107 805.448 90.1547 805.208 89.9387C804.98 89.7107 804.806 89.4227 804.686 89.0747C804.578 88.7267 804.518 88.3007 804.506 87.7967L803.102 88.6427C802.358 89.0867 801.698 89.4407 801.122 89.7047C800.546 89.9567 800.006 90.1487 799.502 90.2807C798.998 90.4007 798.506 90.4787 798.026 90.5147C797.558 90.5387 797.054 90.5507 796.514 90.5507H795.542V89.3627ZM800.366 81.7487C800.126 81.7487 799.934 81.6827 799.79 81.5507C799.646 81.4067 799.574 81.1787 799.574 80.8667C799.574 80.5547 799.646 80.3327 799.79 80.2007C799.934 80.0567 800.126 79.9847 800.366 79.9847H800.564C800.804 79.9847 800.996 80.0567 801.14 80.2007C801.284 80.3327 801.356 80.5547 801.356 80.8667C801.356 81.1787 801.284 81.4067 801.14 81.5507C800.996 81.6827 800.804 81.7487 800.564 81.7487H800.366ZM807.478 89.3627L807.838 89.0027H808.36C808.936 89.0027 809.35 88.8707 809.602 88.6067C809.866 88.3427 809.998 87.9227 809.998 87.3467V77.2307H811.33V87.3467C811.33 88.4507 811.09 89.2607 810.61 89.7767C810.142 90.2927 809.392 90.5507 808.36 90.5507H807.478V89.3627ZM814.022 77.2307H815.354V90.5507H814.022V77.2307ZM819.871 93.3227H820.537C821.197 93.3227 821.737 93.2267 822.157 93.0347C822.577 92.8427 822.907 92.5847 823.147 92.2607C823.387 91.9487 823.555 91.5767 823.651 91.1447C823.747 90.7247 823.795 90.2807 823.795 89.8127C823.795 89.4647 823.777 89.1047 823.741 88.7327C823.705 88.3487 823.657 87.9827 823.597 87.6347L823.219 85.6007L824.479 85.3487L824.695 86.6447L827.863 86.1047V84.6287H829.123V87.7427C829.123 88.1987 829.249 88.5227 829.501 88.7147C829.753 88.9067 830.143 89.0027 830.671 89.0027H831.301V90.1907L830.941 90.5507H830.905C830.353 90.5507 829.885 90.5027 829.501 90.4067C829.117 90.2987 828.799 90.1367 828.547 89.9207C828.307 89.6927 828.133 89.3987 828.025 89.0387C827.917 88.6787 827.863 88.2467 827.863 87.7427V87.5987L824.911 88.1027C824.935 88.4027 824.953 88.6967 824.965 88.9847C824.989 89.2727 825.001 89.5607 825.001 89.8487C825.001 90.5087 824.929 91.1387 824.785 91.7387C824.641 92.3507 824.395 92.8847 824.047 93.3407C823.711 93.8087 823.255 94.1807 822.679 94.4567C822.115 94.7327 821.401 94.8707 820.537 94.8707H819.871V93.3227ZM828.385 94.1507C828.145 94.1507 827.953 94.0787 827.809 93.9347C827.665 93.8027 827.593 93.5807 827.593 93.2687C827.593 92.9567 827.665 92.7287 827.809 92.5847C827.953 92.4527 828.145 92.3867 828.385 92.3867H828.583C828.823 92.3867 829.015 92.4527 829.159 92.5847C829.303 92.7287 829.375 92.9567 829.375 93.2687C829.375 93.5807 829.303 93.8027 829.159 93.9347C829.015 94.0787 828.823 94.1507 828.583 94.1507H828.385ZM830.945 89.3627L831.305 89.0027H833.159C833.735 89.0027 834.185 88.9007 834.509 88.6967C834.833 88.4807 834.995 88.1507 834.995 87.7067C834.995 87.4667 834.941 87.2447 834.833 87.0407C834.725 86.8367 834.533 86.5967 834.257 86.3207L831.485 83.6747V80.6147L839.261 77.0327V78.6707L832.115 81.9827V82.0727L834.239 84.1427C834.611 84.5027 834.923 84.8327 835.175 85.1327C835.439 85.4327 835.649 85.7207 835.805 85.9967C835.961 86.2727 836.075 86.5427 836.147 86.8067C836.219 87.0707 836.255 87.3527 836.255 87.6527C836.255 88.5647 835.979 89.2787 835.427 89.7947C834.887 90.2987 834.131 90.5507 833.159 90.5507H830.945V89.3627ZM841.145 79.4267H842.477V90.5507H841.145V79.4267ZM839.975 76.9067H840.623L840.641 76.8347C840.545 76.7147 840.467 76.5767 840.407 76.4207C840.347 76.2527 840.317 76.0847 840.317 75.9167C840.317 75.4487 840.473 75.0587 840.785 74.7467C841.097 74.4347 841.493 74.2787 841.973 74.2787C842.249 74.2787 842.531 74.3507 842.819 74.4947C843.107 74.6267 843.323 74.8067 843.467 75.0347L842.801 75.8447C842.561 75.5687 842.285 75.4307 841.973 75.4307C841.757 75.4307 841.577 75.4907 841.433 75.6107C841.289 75.7187 841.217 75.8567 841.217 76.0247C841.217 76.2767 841.331 76.4747 841.559 76.6187C841.787 76.7627 842.105 76.8347 842.513 76.8347H843.665V77.9867H839.975V76.9067ZM854.32 94.8707C852.58 94.8707 851.224 94.4747 850.252 93.6827C849.28 92.8907 848.794 91.7867 848.794 90.3707C848.794 89.8187 848.866 89.2367 849.01 88.6247C849.166 88.0007 849.376 87.3827 849.64 86.7707L850.756 87.1127C850.528 87.5807 850.342 88.0727 850.198 88.5887C850.054 89.0927 849.982 89.5727 849.982 90.0287C849.982 91.0487 850.312 91.8407 850.972 92.4047C851.644 92.9687 852.58 93.2507 853.78 93.2507H854.86C856.168 93.2507 857.212 93.0107 857.992 92.5307C858.772 92.0627 859.228 91.3967 859.36 90.5327L855.526 90.0287V88.4447L857.848 88.7867C858.256 88.8467 858.7 88.9007 859.18 88.9487C859.672 88.9847 860.074 89.0027 860.386 89.0027V89.7407L860.602 89.9747C860.602 90.7427 860.458 91.4267 860.17 92.0267C859.894 92.6387 859.486 93.1547 858.946 93.5747C858.406 93.9947 857.746 94.3127 856.966 94.5287C856.186 94.7567 855.304 94.8707 854.32 94.8707ZM855.382 98.4707C855.142 98.4707 854.95 98.3987 854.806 98.2547C854.662 98.1227 854.59 97.9007 854.59 97.5887C854.59 97.2767 854.662 97.0487 854.806 96.9047C854.95 96.7727 855.142 96.7067 855.382 96.7067H855.58C855.82 96.7067 856.012 96.7727 856.156 96.9047C856.3 97.0487 856.372 97.2767 856.372 97.5887C856.372 97.9007 856.3 98.1227 856.156 98.2547C856.012 98.3987 855.82 98.4707 855.58 98.4707H855.382ZM853.06 98.4707C852.82 98.4707 852.628 98.3987 852.484 98.2547C852.34 98.1227 852.268 97.9007 852.268 97.5887C852.268 97.2767 852.34 97.0487 852.484 96.9047C852.628 96.7727 852.82 96.7067 853.06 96.7067H853.258C853.498 96.7067 853.69 96.7727 853.834 96.9047C853.978 97.0487 854.05 97.2767 854.05 97.5887C854.05 97.9007 853.978 98.1227 853.834 98.2547C853.69 98.3987 853.498 98.4707 853.258 98.4707H853.06ZM860.019 89.3627L860.379 89.0027H861.009C862.029 89.0027 862.539 88.4927 862.539 87.4727V77.2307H863.871V87.4727C863.871 88.4927 864.381 89.0027 865.401 89.0027H866.031V90.1907L865.671 90.5507C863.967 90.5507 862.971 89.9627 862.683 88.7867H862.593C862.461 89.4467 862.203 89.9087 861.819 90.1727C861.435 90.4247 860.835 90.5507 860.019 90.5507V89.3627ZM865.679 89.3627L866.039 89.0027H868.307V88.9127C867.863 88.6247 867.491 88.2107 867.191 87.6707C866.903 87.1307 866.759 86.5427 866.759 85.9067C866.759 85.3667 866.849 84.8747 867.029 84.4307C867.209 83.9867 867.449 83.6087 867.749 83.2967C868.061 82.9727 868.427 82.7267 868.847 82.5587C869.267 82.3787 869.711 82.2887 870.179 82.2887C870.863 82.2887 871.457 82.4327 871.961 82.7207C872.465 82.9967 872.885 83.3927 873.221 83.9087L872.321 84.9527C872.009 84.5687 871.673 84.2867 871.313 84.1067C870.965 83.9267 870.563 83.8367 870.107 83.8367C869.423 83.8367 868.901 84.0287 868.541 84.4127C868.193 84.7847 868.019 85.2827 868.019 85.9067C868.019 86.2427 868.091 86.5547 868.235 86.8427C868.379 87.1307 868.577 87.3827 868.829 87.5987C869.081 87.8027 869.381 87.9647 869.729 88.0847C870.077 88.2047 870.455 88.2647 870.863 88.2647C871.403 88.2647 871.961 88.1927 872.537 88.0487L873.977 87.6887L874.319 89.0927L871.979 89.7407C871.403 89.9087 870.869 90.0467 870.377 90.1547C869.885 90.2507 869.393 90.3287 868.901 90.3887C868.421 90.4487 867.917 90.4907 867.389 90.5147C866.873 90.5387 866.303 90.5507 865.679 90.5507V89.3627ZM884.414 94.8707C882.902 94.8707 881.726 94.4747 880.886 93.6827C880.046 92.8907 879.626 91.7867 879.626 90.3707C879.626 89.8187 879.698 89.2367 879.842 88.6247C879.998 88.0007 880.208 87.3827 880.472 86.7707L881.588 87.1127C881.36 87.6167 881.174 88.1387 881.03 88.6787C880.886 89.2187 880.814 89.7287 880.814 90.2087C880.814 91.1807 881.084 91.9307 881.624 92.4587C882.164 92.9867 882.914 93.2507 883.874 93.2507H884.954C885.518 93.2507 885.992 93.1847 886.376 93.0527C886.772 92.9327 887.09 92.7227 887.33 92.4227C887.57 92.1347 887.744 91.7507 887.852 91.2707C887.96 90.8027 888.014 90.2267 888.014 89.5427V77.2307H889.346V89.0027H891.542V90.1907L891.182 90.5507H889.292C889.16 92.0387 888.698 93.1307 887.906 93.8267C887.114 94.5227 885.95 94.8707 884.414 94.8707ZM906.701 90.5507C906.245 90.5507 905.861 90.5147 905.549 90.4427C905.249 90.3587 904.973 90.2027 904.721 89.9747C904.097 90.3587 903.221 90.5507 902.093 90.5507H896.765C895.109 90.5507 894.137 89.9627 893.849 88.7867H893.759C893.627 89.4467 893.369 89.9087 892.985 90.1727C892.601 90.4247 892.001 90.5507 891.185 90.5507V89.3627L891.545 89.0027H892.175C893.195 89.0027 893.705 88.4927 893.705 87.4727V86.0687H894.965V87.4727C894.965 88.1927 895.199 88.6547 895.667 88.8587L896.621 87.2567C897.077 86.4647 897.539 85.8107 898.007 85.2947C898.475 84.7667 898.949 84.3467 899.429 84.0347C899.909 83.7227 900.395 83.5007 900.887 83.3687C901.391 83.2367 901.913 83.1707 902.453 83.1707C903.617 83.1707 904.523 83.4947 905.171 84.1427C905.819 84.7787 906.143 85.6607 906.143 86.7887C906.143 87.6287 906.005 88.3247 905.729 88.8767C905.981 88.9607 906.305 89.0027 906.701 89.0027H907.061V90.1907L906.701 90.5507ZM902.093 89.0027C902.993 89.0027 903.683 88.8527 904.163 88.5527C904.643 88.2527 904.883 87.7247 904.883 86.9687C904.883 86.2247 904.691 85.6667 904.307 85.2947C903.935 84.9107 903.407 84.7187 902.723 84.7187H902.183C901.703 84.7187 901.265 84.7667 900.869 84.8627C900.485 84.9467 900.113 85.1027 899.753 85.3307C899.405 85.5467 899.057 85.8527 898.709 86.2487C898.373 86.6327 898.013 87.1187 897.629 87.7067L896.855 88.9127L896.909 89.0027H902.093ZM906.706 89.3627L907.066 89.0027H907.678C908.206 89.0027 908.692 88.9847 909.136 88.9487C909.592 88.9127 910.054 88.8467 910.522 88.7507C910.99 88.6427 911.482 88.4927 911.998 88.3007C912.526 88.1087 913.12 87.8567 913.78 87.5447L915.436 86.7527V86.6807L912.772 86.0867L909.046 85.1687V86.7167H907.786V85.3307C907.786 84.8267 907.924 84.4487 908.2 84.1967C908.488 83.9327 908.848 83.8007 909.28 83.8007C909.412 83.8007 909.568 83.8187 909.748 83.8547C909.94 83.8787 910.234 83.9387 910.63 84.0347L915.022 85.1687C915.682 85.3367 916.234 85.4567 916.678 85.5287C917.122 85.5887 917.506 85.6187 917.83 85.6187H918.118V87.1667H916.714L914.266 88.6427C913.522 89.0867 912.862 89.4407 912.286 89.7047C911.71 89.9567 911.17 90.1487 910.666 90.2807C910.162 90.4007 909.67 90.4787 909.19 90.5147C908.722 90.5387 908.218 90.5507 907.678 90.5507H906.706V89.3627ZM919.825 77.2307H921.157V90.5507H919.825V77.2307ZM927.366 93.3227H928.608C930.06 93.3227 931.134 93.0047 931.83 92.3687C932.526 91.7327 932.874 90.8447 932.874 89.7047V89.3087H932.784C932.616 89.7047 932.334 90.0167 931.938 90.2447C931.554 90.4727 931.098 90.5867 930.57 90.5867C929.61 90.5867 928.866 90.3347 928.338 89.8307C927.81 89.3147 927.546 88.5947 927.546 87.6707C927.546 87.1307 927.624 86.6207 927.78 86.1407C927.948 85.6607 928.176 85.2467 928.464 84.8987C928.752 84.5387 929.094 84.2567 929.49 84.0527C929.898 83.8367 930.342 83.7287 930.822 83.7287C931.854 83.7287 932.664 84.1727 933.252 85.0607C933.84 85.9487 934.134 87.1967 934.134 88.8047C934.134 90.7127 933.672 92.2007 932.748 93.2687C931.836 94.3367 930.456 94.8707 928.608 94.8707H927.366V93.3227ZM930.93 89.0027C931.446 89.0027 931.854 88.9607 932.154 88.8767C932.466 88.7807 932.706 88.6367 932.874 88.4447C932.874 87.4727 932.682 86.7047 932.298 86.1407C931.914 85.5647 931.386 85.2767 930.714 85.2767C930.102 85.2767 929.628 85.4807 929.292 85.8887C928.968 86.2967 928.806 86.8307 928.806 87.4907C928.806 88.0187 928.944 88.4027 929.22 88.6427C929.508 88.8827 929.958 89.0027 930.57 89.0027H930.93ZM946.723 90.7667C945.463 90.7667 944.401 90.7007 943.537 90.5687C942.685 90.4367 941.995 90.2267 941.467 89.9387C940.939 89.6507 940.555 89.2727 940.315 88.8047C940.087 88.3247 939.973 87.7427 939.973 87.0587C939.973 86.5787 940.033 86.0867 940.153 85.5827C940.285 85.0787 940.483 84.5207 940.747 83.9087L941.863 84.2507C941.371 85.2707 941.125 86.1467 941.125 86.8787C941.125 87.6107 941.473 88.1507 942.169 88.4987C942.865 88.8347 943.963 89.0027 945.463 89.0027H947.983C948.835 89.0027 949.537 88.9787 950.089 88.9307C950.641 88.8827 951.079 88.7987 951.403 88.6787C951.727 88.5587 951.949 88.3967 952.069 88.1927C952.201 87.9767 952.267 87.7067 952.267 87.3827C952.267 87.1787 952.255 86.9267 952.231 86.6267C952.207 86.3147 952.147 85.9067 952.051 85.4027L951.781 83.9087L953.041 83.7107L953.275 85.2047C953.359 85.7447 953.413 86.1887 953.437 86.5367C953.473 86.8727 953.491 87.1547 953.491 87.3827C953.491 88.0067 953.371 88.5347 953.131 88.9667C952.903 89.3987 952.519 89.7467 951.979 90.0107C951.451 90.2747 950.755 90.4667 949.891 90.5867C949.039 90.7067 947.983 90.7667 946.723 90.7667ZM947.731 83.9087C947.491 83.9087 947.299 83.8427 947.155 83.7107C947.011 83.5667 946.939 83.3387 946.939 83.0267C946.939 82.7147 947.011 82.4927 947.155 82.3607C947.299 82.2167 947.491 82.1447 947.731 82.1447H947.929C948.169 82.1447 948.361 82.2167 948.505 82.3607C948.649 82.4927 948.721 82.7147 948.721 83.0267C948.721 83.3387 948.649 83.5667 948.505 83.7107C948.361 83.8427 948.169 83.9087 947.929 83.9087H947.731ZM945.409 83.9087C945.169 83.9087 944.977 83.8427 944.833 83.7107C944.689 83.5667 944.617 83.3387 944.617 83.0267C944.617 82.7147 944.689 82.4927 944.833 82.3607C944.977 82.2167 945.169 82.1447 945.409 82.1447H945.607C945.847 82.1447 946.039 82.2167 946.183 82.3607C946.327 82.4927 946.399 82.7147 946.399 83.0267C946.399 83.3387 946.327 83.5667 946.183 83.7107C946.039 83.8427 945.847 83.9087 945.607 83.9087H945.409ZM958.781 90.5507C958.205 90.5507 957.713 90.5027 957.305 90.4067C956.909 90.3107 956.585 90.1547 956.333 89.9387C956.093 89.7107 955.919 89.4167 955.811 89.0567C955.703 88.6967 955.649 88.2587 955.649 87.7427V77.2307H956.981V87.7427C956.981 88.1987 957.107 88.5227 957.359 88.7147C957.611 88.9067 958.001 89.0027 958.529 89.0027H959.159V90.1907L958.799 90.5507H958.781ZM958.79 89.3627L959.15 89.0027H959.762C960.29 89.0027 960.776 88.9847 961.22 88.9487C961.676 88.9127 962.138 88.8467 962.606 88.7507C963.074 88.6427 963.566 88.4927 964.082 88.3007C964.61 88.1087 965.204 87.8567 965.864 87.5447L967.52 86.7527V86.6807L964.856 86.0867L961.13 85.1687V86.7167H959.87V85.3307C959.87 84.8267 960.008 84.4487 960.284 84.1967C960.572 83.9327 960.932 83.8007 961.364 83.8007C961.496 83.8007 961.652 83.8187 961.832 83.8547C962.024 83.8787 962.318 83.9387 962.714 84.0347L967.106 85.1687C967.766 85.3367 968.318 85.4567 968.762 85.5287C969.206 85.5887 969.59 85.6187 969.914 85.6187H970.202V87.1667H968.834V87.3827C968.834 87.9827 968.966 88.4027 969.23 88.6427C969.494 88.8827 969.902 89.0027 970.454 89.0027H971.084V90.1907L970.724 90.5507C970.196 90.5507 969.746 90.5027 969.374 90.4067C969.002 90.3107 968.696 90.1547 968.456 89.9387C968.228 89.7107 968.054 89.4227 967.934 89.0747C967.826 88.7267 967.766 88.3007 967.754 87.7967L966.35 88.6427C965.606 89.0867 964.946 89.4407 964.37 89.7047C963.794 89.9567 963.254 90.1487 962.75 90.2807C962.246 90.4007 961.754 90.4787 961.274 90.5147C960.806 90.5387 960.302 90.5507 959.762 90.5507H958.79V89.3627ZM964.532 94.1507C964.292 94.1507 964.1 94.0787 963.956 93.9347C963.812 93.8027 963.74 93.5807 963.74 93.2687C963.74 92.9567 963.812 92.7287 963.956 92.5847C964.1 92.4527 964.292 92.3867 964.532 92.3867H964.73C964.97 92.3867 965.162 92.4527 965.306 92.5847C965.45 92.7287 965.522 92.9567 965.522 93.2687C965.522 93.5807 965.45 93.8027 965.306 93.9347C965.162 94.0787 964.97 94.1507 964.73 94.1507H964.532ZM970.726 89.3627L971.086 89.0027H971.716C972.736 89.0027 973.246 88.4927 973.246 87.4727V84.6287H974.506V87.4727C974.506 88.4927 975.016 89.0027 976.036 89.0027H976.666V90.1907L976.306 90.5507C974.65 90.5507 973.678 89.9627 973.39 88.7867H973.3C973.168 89.4467 972.91 89.9087 972.526 90.1727C972.142 90.4247 971.542 90.5507 970.726 90.5507V89.3627ZM974.884 82.4687C974.644 82.4687 974.452 82.4027 974.308 82.2707C974.164 82.1267 974.092 81.8987 974.092 81.5867C974.092 81.2747 974.164 81.0527 974.308 80.9207C974.452 80.7767 974.644 80.7047 974.884 80.7047H975.082C975.322 80.7047 975.514 80.7767 975.658 80.9207C975.802 81.0527 975.874 81.2747 975.874 81.5867C975.874 81.8987 975.802 82.1267 975.658 82.2707C975.514 82.4027 975.322 82.4687 975.082 82.4687H974.884ZM972.562 82.4687C972.322 82.4687 972.13 82.4027 971.986 82.2707C971.842 82.1267 971.77 81.8987 971.77 81.5867C971.77 81.2747 971.842 81.0527 971.986 80.9207C972.13 80.7767 972.322 80.7047 972.562 80.7047H972.76C973 80.7047 973.192 80.7767 973.336 80.9207C973.48 81.0527 973.552 81.2747 973.552 81.5867C973.552 81.8987 973.48 82.1267 973.336 82.2707C973.192 82.4027 973 82.4687 972.76 82.4687H972.562ZM976.298 89.3627L976.658 89.0027H977.288C978.308 89.0027 978.818 88.4927 978.818 87.4727V84.6287H980.078V87.4727C980.078 88.4927 980.588 89.0027 981.608 89.0027H982.238V90.1907L981.878 90.5507C980.222 90.5507 979.25 89.9627 978.962 88.7867H978.872C978.74 89.4467 978.482 89.9087 978.098 90.1727C977.714 90.4247 977.114 90.5507 976.298 90.5507V89.3627ZM979.34 82.4687C979.1 82.4687 978.908 82.4027 978.764 82.2707C978.62 82.1267 978.548 81.8987 978.548 81.5867C978.548 81.2747 978.62 81.0527 978.764 80.9207C978.908 80.7767 979.1 80.7047 979.34 80.7047H979.538C979.778 80.7047 979.97 80.7767 980.114 80.9207C980.258 81.0527 980.33 81.2747 980.33 81.5867C980.33 81.8987 980.258 82.1267 980.114 82.2707C979.97 82.4027 979.778 82.4687 979.538 82.4687H979.34ZM985.722 91.1627C985.338 90.9467 984.984 90.7907 984.66 90.6947C984.336 90.6107 983.946 90.5627 983.49 90.5507H981.87V89.3627L982.23 89.0027H983.58V77.2307H984.912V89.1647C985.176 89.2247 985.434 89.3087 985.686 89.4167C985.938 89.5247 986.208 89.6567 986.496 89.8127L987.414 90.3347L986.64 91.6847L985.722 91.1627ZM988.08 77.2307H989.412V90.5507H988.08V77.2307ZM1000.52 94.8707C999.006 94.8707 997.83 94.4747 996.99 93.6827C996.15 92.8907 995.73 91.7867 995.73 90.3707C995.73 89.8187 995.802 89.2367 995.946 88.6247C996.102 88.0007 996.312 87.3827 996.576 86.7707L997.692 87.1127C997.464 87.6167 997.278 88.1387 997.134 88.6787C996.99 89.2187 996.918 89.7287 996.918 90.2087C996.918 91.1807 997.188 91.9307 997.728 92.4587C998.268 92.9867 999.018 93.2507 999.978 93.2507H1001.06C1001.62 93.2507 1002.1 93.1847 1002.48 93.0527C1002.88 92.9327 1003.19 92.7227 1003.43 92.4227C1003.67 92.1347 1003.85 91.7507 1003.96 91.2707C1004.06 90.8027 1004.12 90.2267 1004.12 89.5427V77.2307H1005.45V89.0027H1007.65V90.1907L1007.29 90.5507H1005.4C1005.26 92.0387 1004.8 93.1307 1004.01 93.8267C1003.22 94.5227 1002.05 94.8707 1000.52 94.8707ZM1022.8 90.5507C1022.35 90.5507 1021.96 90.5147 1021.65 90.4427C1021.35 90.3587 1021.08 90.2027 1020.82 89.9747C1020.2 90.3587 1019.32 90.5507 1018.2 90.5507H1012.87C1011.21 90.5507 1010.24 89.9627 1009.95 88.7867H1009.86C1009.73 89.4467 1009.47 89.9087 1009.09 90.1727C1008.7 90.4247 1008.1 90.5507 1007.29 90.5507V89.3627L1007.65 89.0027H1008.28C1009.3 89.0027 1009.81 88.4927 1009.81 87.4727V86.0687H1011.07V87.4727C1011.07 88.1927 1011.3 88.6547 1011.77 88.8587L1012.72 87.2567C1013.18 86.4647 1013.64 85.8107 1014.11 85.2947C1014.58 84.7667 1015.05 84.3467 1015.53 84.0347C1016.01 83.7227 1016.5 83.5007 1016.99 83.3687C1017.49 83.2367 1018.02 83.1707 1018.56 83.1707C1019.72 83.1707 1020.63 83.4947 1021.27 84.1427C1021.92 84.7787 1022.25 85.6607 1022.25 86.7887C1022.25 87.6287 1022.11 88.3247 1021.83 88.8767C1022.08 88.9607 1022.41 89.0027 1022.8 89.0027H1023.16V90.1907L1022.8 90.5507ZM1018.2 89.0027C1019.1 89.0027 1019.79 88.8527 1020.27 88.5527C1020.75 88.2527 1020.99 87.7247 1020.99 86.9687C1020.99 86.2247 1020.79 85.6667 1020.41 85.2947C1020.04 84.9107 1019.51 84.7187 1018.83 84.7187H1018.29C1017.81 84.7187 1017.37 84.7667 1016.97 84.8627C1016.59 84.9467 1016.22 85.1027 1015.86 85.3307C1015.51 85.5467 1015.16 85.8527 1014.81 86.2487C1014.48 86.6327 1014.12 87.1187 1013.73 87.7067L1012.96 88.9127L1013.01 89.0027H1018.2ZM1017.91 81.0107C1017.67 81.0107 1017.48 80.9447 1017.33 80.8127C1017.19 80.6687 1017.12 80.4407 1017.12 80.1287C1017.12 79.8167 1017.19 79.5947 1017.33 79.4627C1017.48 79.3187 1017.67 79.2467 1017.91 79.2467H1018.11C1018.35 79.2467 1018.54 79.3187 1018.68 79.4627C1018.83 79.5947 1018.9 79.8167 1018.9 80.1287C1018.9 80.4407 1018.83 80.6687 1018.68 80.8127C1018.54 80.9447 1018.35 81.0107 1018.11 81.0107H1017.91ZM1022.81 89.3627L1023.17 89.0027H1026.57C1027.06 89.0027 1027.48 88.9607 1027.81 88.8767C1028.15 88.7927 1028.42 88.6547 1028.62 88.4627C1028.84 88.2707 1028.99 88.0247 1029.07 87.7247C1029.17 87.4127 1029.22 87.0347 1029.22 86.5907V86.0147H1029.13C1028.96 86.4107 1028.68 86.7227 1028.28 86.9507C1027.9 87.1787 1027.44 87.2927 1026.91 87.2927C1025.95 87.2927 1025.21 87.0467 1024.68 86.5547C1024.15 86.0627 1023.89 85.3667 1023.89 84.4667C1023.89 83.9387 1023.97 83.4407 1024.12 82.9727C1024.29 82.5047 1024.52 82.0967 1024.81 81.7487C1025.1 81.4007 1025.44 81.1247 1025.83 80.9207C1026.24 80.7167 1026.69 80.6147 1027.17 80.6147C1028.2 80.6147 1029.01 81.0587 1029.6 81.9467C1030.18 82.8347 1030.48 84.0827 1030.48 85.6907C1030.48 86.5907 1030.41 87.3527 1030.28 87.9767C1030.15 88.6007 1029.93 89.1047 1029.61 89.4887C1029.31 89.8607 1028.91 90.1307 1028.41 90.2987C1027.92 90.4667 1027.3 90.5507 1026.57 90.5507H1022.81V89.3627ZM1027.27 85.7087C1027.79 85.7087 1028.2 85.6667 1028.5 85.5827C1028.81 85.4867 1029.05 85.3427 1029.22 85.1507C1029.19 84.2387 1028.99 83.5127 1028.61 82.9727C1028.22 82.4327 1027.71 82.1627 1027.06 82.1627C1026.45 82.1627 1025.97 82.3607 1025.64 82.7567C1025.31 83.1407 1025.15 83.6507 1025.15 84.2867C1025.15 84.7907 1025.29 85.1567 1025.56 85.3847C1025.85 85.6007 1026.3 85.7087 1026.91 85.7087H1027.27ZM1027.06 78.4547C1026.82 78.4547 1026.63 78.3887 1026.48 78.2567C1026.34 78.1127 1026.27 77.8847 1026.27 77.5727C1026.27 77.2607 1026.34 77.0387 1026.48 76.9067C1026.63 76.7627 1026.82 76.6907 1027.06 76.6907H1027.26C1027.5 76.6907 1027.69 76.7627 1027.83 76.9067C1027.98 77.0387 1028.05 77.2607 1028.05 77.5727C1028.05 77.8847 1027.98 78.1127 1027.83 78.2567C1027.69 78.3887 1027.5 78.4547 1027.26 78.4547H1027.06ZM1032.64 79.4267H1033.97V90.5507H1032.64V79.4267ZM1031.47 76.9067H1032.12L1032.14 76.8347C1032.04 76.7147 1031.96 76.5767 1031.9 76.4207C1031.84 76.2527 1031.81 76.0847 1031.81 75.9167C1031.81 75.4487 1031.97 75.0587 1032.28 74.7467C1032.59 74.4347 1032.99 74.2787 1033.47 74.2787C1033.75 74.2787 1034.03 74.3507 1034.32 74.4947C1034.6 74.6267 1034.82 74.8067 1034.96 75.0347L1034.3 75.8447C1034.06 75.5687 1033.78 75.4307 1033.47 75.4307C1033.25 75.4307 1033.07 75.4907 1032.93 75.6107C1032.79 75.7187 1032.71 75.8567 1032.71 76.0247C1032.71 76.2767 1032.83 76.4747 1033.06 76.6187C1033.28 76.7627 1033.6 76.8347 1034.01 76.8347H1035.16V77.9867H1031.47V76.9067ZM1045.55 94.8707C1043.89 94.8707 1042.6 94.4747 1041.68 93.6827C1040.75 92.8907 1040.29 91.7867 1040.29 90.3707C1040.29 89.8187 1040.36 89.2367 1040.51 88.6247C1040.66 88.0007 1040.87 87.3827 1041.14 86.7707L1042.25 87.1127C1042.02 87.5807 1041.84 88.0727 1041.69 88.5887C1041.55 89.0927 1041.48 89.5727 1041.48 90.0287C1041.48 91.0487 1041.78 91.8407 1042.4 92.4047C1043.02 92.9687 1043.89 93.2507 1045.01 93.2507H1046.09C1047.57 93.2507 1048.67 92.9927 1049.36 92.4767C1050.06 91.9727 1050.41 91.1747 1050.41 90.0827V89.3087H1050.32C1050.15 89.7047 1049.87 90.0167 1049.47 90.2447C1049.09 90.4727 1048.63 90.5867 1048.1 90.5867C1047.14 90.5867 1046.4 90.3347 1045.87 89.8307C1045.34 89.3147 1045.08 88.5947 1045.08 87.6707C1045.08 87.1307 1045.16 86.6207 1045.31 86.1407C1045.48 85.6607 1045.71 85.2467 1046 84.8987C1046.28 84.5387 1046.63 84.2567 1047.02 84.0527C1047.43 83.8367 1047.87 83.7287 1048.35 83.7287C1049.4 83.7287 1050.21 84.2267 1050.78 85.2227C1051.37 86.2067 1051.66 87.5867 1051.65 89.3627C1051.64 91.2467 1051.13 92.6327 1050.14 93.5207C1049.15 94.4207 1047.62 94.8707 1045.55 94.8707ZM1048.46 89.0027C1048.98 89.0027 1049.39 88.9607 1049.69 88.8767C1050 88.7807 1050.24 88.6367 1050.41 88.4447C1050.41 87.4727 1050.21 86.7047 1049.83 86.1407C1049.45 85.5647 1048.92 85.2767 1048.25 85.2767C1047.63 85.2767 1047.16 85.4807 1046.82 85.8887C1046.5 86.2967 1046.34 86.8307 1046.34 87.4907C1046.34 88.0187 1046.48 88.4027 1046.75 88.6427C1047.04 88.8827 1047.49 89.0027 1048.1 89.0027H1048.46ZM1049.36 81.5687C1049.12 81.5687 1048.93 81.5027 1048.79 81.3707C1048.64 81.2267 1048.57 80.9987 1048.57 80.6867C1048.57 80.3747 1048.64 80.1527 1048.79 80.0207C1048.93 79.8767 1049.12 79.8047 1049.36 79.8047H1049.56C1049.8 79.8047 1049.99 79.8767 1050.14 80.0207C1050.28 80.1527 1050.35 80.3747 1050.35 80.6867C1050.35 80.9987 1050.28 81.2267 1050.14 81.3707C1049.99 81.5027 1049.8 81.5687 1049.56 81.5687H1049.36ZM1047.04 81.5687C1046.8 81.5687 1046.61 81.5027 1046.46 81.3707C1046.32 81.2267 1046.25 80.9987 1046.25 80.6867C1046.25 80.3747 1046.32 80.1527 1046.46 80.0207C1046.61 79.8767 1046.8 79.8047 1047.04 79.8047H1047.24C1047.48 79.8047 1047.67 79.8767 1047.81 80.0207C1047.96 80.1527 1048.03 80.3747 1048.03 80.6867C1048.03 80.9987 1047.96 81.2267 1047.81 81.3707C1047.67 81.5027 1047.48 81.5687 1047.24 81.5687H1047.04ZM1053.07 93.3227H1054.02C1055.33 93.3227 1056.34 93.0767 1057.05 92.5847C1057.77 92.1047 1058.21 91.4267 1058.38 90.5507H1056.27C1055.31 90.5507 1054.57 90.2987 1054.04 89.7947C1053.51 89.2907 1053.25 88.5827 1053.25 87.6707C1053.25 87.1307 1053.33 86.6207 1053.48 86.1407C1053.65 85.6607 1053.88 85.2467 1054.17 84.8987C1054.45 84.5387 1054.8 84.2567 1055.19 84.0527C1055.6 83.8367 1056.04 83.7287 1056.52 83.7287C1057.52 83.7287 1058.3 84.1727 1058.86 85.0607C1059.44 85.9487 1059.73 87.1967 1059.73 88.8047V89.0027H1060.56V90.1907L1060.2 90.5507H1059.57C1059.3 91.9307 1058.71 92.9927 1057.78 93.7367C1056.87 94.4927 1055.62 94.8707 1054.02 94.8707H1053.07V93.3227ZM1054.51 87.4907C1054.51 88.0187 1054.65 88.4027 1054.92 88.6427C1055.21 88.8827 1055.66 89.0027 1056.27 89.0027H1058.47V88.4447C1058.47 87.4727 1058.28 86.7047 1057.91 86.1407C1057.55 85.5647 1057.05 85.2767 1056.42 85.2767C1055.8 85.2767 1055.33 85.4807 1054.99 85.8887C1054.67 86.2967 1054.51 86.8307 1054.51 87.4907ZM1060.2 89.3627L1060.56 89.0027H1061.19C1061.42 89.0027 1061.61 88.9847 1061.78 88.9487C1061.96 88.9007 1062.12 88.8227 1062.27 88.7147C1062.41 88.6067 1062.54 88.4627 1062.66 88.2827C1062.8 88.1027 1062.93 87.8687 1063.08 87.5807L1063.85 86.0687L1064.88 86.5907L1063.92 88.3907L1064.18 88.5527C1064.56 88.8047 1064.93 88.9787 1065.29 89.0747C1065.66 89.1707 1066.02 89.2187 1066.37 89.2187C1066.94 89.2187 1067.35 89.0867 1067.61 88.8227C1067.89 88.5587 1068.03 88.1087 1068.03 87.4727V86.0687H1069.29V87.4727C1069.29 88.1207 1069.38 88.5767 1069.56 88.8407C1069.74 89.0927 1070.04 89.2187 1070.46 89.2187H1070.87C1071.29 89.2187 1071.59 89.0927 1071.75 88.8407C1071.93 88.5767 1072.02 88.1207 1072.02 87.4727V85.3487H1073.28V87.4727C1073.28 88.4927 1073.79 89.0027 1074.81 89.0027H1075.44V90.1907L1075.08 90.5507C1074.29 90.5507 1073.67 90.4247 1073.21 90.1727C1072.76 89.9087 1072.44 89.5067 1072.26 88.9667H1072.17C1072.1 89.6387 1071.92 90.1067 1071.63 90.3707C1071.34 90.6347 1070.92 90.7667 1070.37 90.7667C1069.13 90.7667 1068.41 90.1667 1068.19 88.9667H1068.1C1067.98 89.5427 1067.75 89.9867 1067.4 90.2987C1067.06 90.6107 1066.61 90.7667 1066.05 90.7667C1065.34 90.7667 1064.55 90.4847 1063.67 89.9207L1063.11 89.5607C1062.77 89.9447 1062.37 90.2087 1061.93 90.3527C1061.48 90.4847 1060.91 90.5507 1060.2 90.5507V89.3627ZM1075.09 89.3627L1075.45 89.0027H1075.72C1076.51 89.0027 1077.08 88.9067 1077.43 88.7147C1077.79 88.5107 1077.97 88.1267 1077.97 87.5627C1077.97 87.3467 1077.95 87.0707 1077.91 86.7347C1077.89 86.3987 1077.83 85.9547 1077.73 85.4027L1077.48 83.9087L1078.74 83.7107L1078.96 85.2047C1079.04 85.7927 1079.1 86.2727 1079.14 86.6447C1079.17 87.0167 1079.19 87.3227 1079.19 87.5627C1079.19 88.5707 1078.89 89.3207 1078.29 89.8127C1077.7 90.3047 1076.85 90.5507 1075.72 90.5507H1075.09V89.3627ZM1078.92 81.5507C1078.68 81.5507 1078.49 81.4847 1078.35 81.3527C1078.2 81.2087 1078.13 80.9807 1078.13 80.6687C1078.13 80.3567 1078.2 80.1347 1078.35 80.0027C1078.49 79.8587 1078.68 79.7867 1078.92 79.7867H1079.12C1079.36 79.7867 1079.55 79.8587 1079.7 80.0027C1079.84 80.1347 1079.91 80.3567 1079.91 80.6687C1079.91 80.9807 1079.84 81.2087 1079.7 81.3527C1079.55 81.4847 1079.36 81.5507 1079.12 81.5507H1078.92ZM1076.6 81.5507C1076.36 81.5507 1076.17 81.4847 1076.02 81.3527C1075.88 81.2087 1075.81 80.9807 1075.81 80.6687C1075.81 80.3567 1075.88 80.1347 1076.02 80.0027C1076.17 79.8587 1076.36 79.7867 1076.6 79.7867H1076.8C1077.04 79.7867 1077.23 79.8587 1077.37 80.0027C1077.52 80.1347 1077.59 80.3567 1077.59 80.6687C1077.59 80.9807 1077.52 81.2087 1077.37 81.3527C1077.23 81.4847 1077.04 81.5507 1076.8 81.5507H1076.6Z" fill="white"/>
</svg>
