<svg width="130" height="49" viewBox="0 0 130 49" fill="none" xmlns="http://www.w3.org/2000/svg">
<path d="M10.6598 28.8848L8.33201 31.4757V33.2398H7.83922L6.86011 35.0821H10.6858C11.9307 35.0821 12.644 34.353 12.644 33.0901C12.644 31.9899 12.0993 31.2543 11.1267 30.9874L12.9617 28.8848H10.6598ZM10.8025 33.2203C10.7895 33.2268 10.7376 33.2463 10.6339 33.2463H8.38389L9.12308 32.9273C9.42784 32.7906 9.7715 32.7255 10.1346 32.7255C10.8025 32.7255 10.8025 32.9338 10.8025 33.0966C10.8155 33.1747 10.8025 33.2203 10.8025 33.2203Z" fill="white"/>
<path d="M58.9671 38.5713C58.9671 40.062 58.4419 40.6154 57.0348 40.6154H21.8712C20.4641 40.6154 19.9389 40.062 19.9389 38.5713V24.8357L16.4893 26.678V38.4411C16.4893 40.2443 15.7696 40.6089 14.6024 40.6089H6.22488C5.03179 40.6089 4.2926 40.2443 4.2926 38.4411V32.6018L0.843018 34.4441V38.6429C0.843018 40.2183 1.30339 41.5072 2.21118 42.4641C3.13193 43.4471 4.37041 43.9419 5.88122 43.9419H14.7321C16.3661 43.9419 17.4749 43.4211 18.2336 42.7701C18.8107 43.2648 19.5109 43.6099 20.315 43.7856V43.9419H57.4563L58.5975 43.9223V43.7791C59.4988 43.5773 60.2705 43.1737 60.9059 42.5683C61.9045 41.5853 62.4167 40.2443 62.4167 38.5908V24.8357L58.9671 26.678V38.5713Z" fill="white"/>
<path d="M123.29 30.8767C121.844 30.8767 120.644 31.2998 119.717 32.1461C118.667 33.1161 118.135 34.4831 118.135 36.2017V38.5647C118.135 40.0555 117.61 40.6088 116.203 40.6088H80.0988V36.2017C80.0988 34.6068 79.6319 33.3114 78.6982 32.3479C77.758 31.3714 76.4935 30.8767 74.9373 30.8767C73.3033 30.8767 71.9611 31.4365 70.9561 32.5367C69.8667 33.715 69.3091 35.3554 69.3091 37.4255C69.3091 41.4811 71.5785 43.7791 75.6895 43.8962C75.9424 43.9093 76.1758 43.9158 76.3963 43.9223C76.2861 44.1306 76.1434 44.3259 75.9554 44.5147C75.3912 45.094 74.7558 45.3674 73.9712 45.3674C73.2969 45.3674 72.6095 45.1852 71.9222 44.8271L70.2558 43.9548V47.5938L70.8847 47.9128C71.8963 48.4205 72.9791 48.6809 74.0944 48.6809C75.5922 48.6809 76.928 48.1862 78.0562 47.2162C79.1067 46.3179 79.7551 45.2242 79.995 43.9548L117.765 43.9418V43.8051C118.673 43.6098 119.354 43.2192 119.873 42.77C120.631 43.4275 121.76 43.9548 123.42 43.9548C125.002 43.9548 126.311 43.4015 127.317 42.3013C128.38 41.1101 128.925 39.4696 128.925 37.4255C128.925 35.6419 128.503 34.1576 127.667 33.0184C126.655 31.6188 125.144 30.8767 123.29 30.8767ZM76.6492 40.6023C76.3055 40.5958 76.0267 40.5828 75.7997 40.5632C73.6664 40.433 72.7587 39.4956 72.7587 37.4255C72.7587 36.3254 72.9726 35.4856 73.4071 34.9193C73.7767 34.431 74.2565 34.2097 74.9438 34.2097C75.8127 34.2097 76.6557 34.379 76.6557 36.4035V40.6023H76.6492ZM124.853 39.9253C124.515 40.4005 124.1 40.6088 123.51 40.6088C122.103 40.6088 121.578 40.0555 121.578 38.5647V36.4035C121.578 34.379 122.421 34.2097 123.29 34.2097C123.951 34.2097 124.425 34.418 124.781 34.8542C125.235 35.4205 125.469 36.2863 125.469 37.419C125.469 38.5192 125.261 39.3589 124.853 39.9253Z" fill="white"/>
<path d="M3.8516 12.4932C3.85808 11.8292 4.72696 11.5883 5.07062 12.1612L9.56415 19.7841L9.57712 19.7516L9.59009 19.7841L14.0836 12.1612C14.4208 11.5883 15.2962 11.8292 15.3026 12.4932L15.3351 17.8833C15.3415 18.4821 15.8279 18.9704 16.4244 18.9704H18.0714C18.6744 18.9704 19.1607 18.4822 19.1607 17.8767V1.42006C19.1607 0.814649 18.6744 0.326416 18.0714 0.326416H15.99C15.5879 0.326416 15.2248 0.547747 15.0303 0.899275L10.5368 9.2513C10.1283 10.0195 9.03245 10.0195 8.61746 9.2513L4.12393 0.899275C3.93589 0.547747 3.56629 0.326416 3.16428 0.326416H1.08934C0.486313 0.326416 0 0.814649 0 1.42006V17.8767C0 18.4822 0.486313 18.9704 1.08934 18.9704H2.73632C3.33286 18.9704 3.81918 18.4821 3.82566 17.8833L3.8516 12.4932Z" fill="white"/>
<path d="M44.0728 16.6204C44.9871 17.5188 46.0375 18.2153 47.1982 18.6906C48.3524 19.1593 49.5908 19.4001 50.8812 19.4001C52.165 19.4001 53.41 19.1593 54.5642 18.6906C55.7249 18.2219 56.7818 17.5253 57.7025 16.6204C58.6103 15.7286 59.3171 14.6936 59.8034 13.5413C60.2897 12.3891 60.5361 11.1588 60.5361 9.88284C60.5361 8.59391 60.2897 7.35705 59.8099 6.21133C59.33 5.0591 58.6233 4.01754 57.709 3.10617C56.8077 2.22085 55.7638 1.53081 54.6031 1.06862C52.3012 0.144231 49.4871 0.144231 47.1852 1.06211C46.0245 1.5243 44.9806 2.21434 44.0793 3.11268C43.165 4.01754 42.4583 5.06561 41.9784 6.21133C41.4986 7.36356 41.2522 8.60042 41.2522 9.88284C41.2522 11.1588 41.4986 12.3826 41.9784 13.5283C42.4518 14.674 43.1585 15.7091 44.0728 16.6204ZM45.4928 7.60442C45.7846 6.89486 46.2191 6.23737 46.7637 5.67753C47.3279 5.11769 47.9698 4.68805 48.6571 4.39511C49.3444 4.10868 50.0901 3.95895 50.8812 3.95895C51.6723 3.95895 52.4309 4.10868 53.1377 4.39511C53.838 4.68154 54.4669 5.11118 55.0116 5.66451C55.5692 6.23737 55.9972 6.88835 56.289 7.60442C56.5808 8.31399 56.7234 9.08214 56.7234 9.88935C56.7234 10.6901 56.5743 11.4582 56.2825 12.1743C55.9907 12.8969 55.5627 13.5478 55.0181 14.1012C54.454 14.661 53.812 15.0907 53.1117 15.3836C51.6982 15.9695 49.9799 15.9565 48.6312 15.3901C47.9503 15.1037 47.3214 14.674 46.7702 14.1142C46.2126 13.5413 45.7781 12.8904 45.4928 12.1808C45.2011 11.4712 45.0584 10.6966 45.0584 9.89586C45.0584 9.07563 45.2011 8.30748 45.4928 7.60442Z" fill="white"/>
<path d="M91.9847 15.325H88.4832C87.8802 15.325 87.3939 14.8367 87.3939 14.2313V1.59586C87.3939 1.12065 87.0113 0.736572 86.538 0.736572H84.5344C84.061 0.736572 83.6785 1.12065 83.6785 1.59586V17.8833C83.6785 18.4887 84.1648 18.9769 84.7678 18.9769H91.9912C92.4645 18.9769 92.8471 18.5929 92.8471 18.1176V16.1908C92.8406 15.709 92.458 15.325 91.9847 15.325Z" fill="white"/>
<path d="M118.803 12.695L124.172 18.6189C124.379 18.8467 124.671 18.9769 124.976 18.9769H129.755L121.52 10.2929C121.111 9.86326 121.118 9.18625 121.533 8.76962L129.469 0.736572H124.82C124.522 0.736572 124.243 0.860258 124.036 1.06857L118.796 6.51724V1.59586C118.796 1.12065 118.414 0.736572 117.941 0.736572H115.937C115.464 0.736572 115.081 1.12065 115.081 1.59586V18.1111C115.081 18.5863 115.464 18.9704 115.937 18.9704H117.941C118.414 18.9704 118.796 18.5863 118.796 18.1111V12.695H118.803Z" fill="white"/>
</svg>
