<svg width="14" height="15" viewBox="0 0 14 15" fill="none" xmlns="http://www.w3.org/2000/svg">
<path d="M10 5.94047L4 2.43888M1.18 4.29425L7 7.70138L12.82 4.29425M7 14.4954V7.69464M13 10.3934V4.99592C12.9998 4.75929 12.938 4.52688 12.821 4.32202C12.704 4.11715 12.5358 3.94703 12.3333 3.82872L7.66667 1.13C7.46397 1.01157 7.23405 0.949219 7 0.949219C6.76595 0.949219 6.53603 1.01157 6.33333 1.13L1.66667 3.82872C1.46418 3.94703 1.29599 4.11715 1.17897 4.32202C1.06196 4.52688 1.00024 4.75929 1 4.99592V10.3934C1.00024 10.63 1.06196 10.8624 1.17897 11.0673C1.29599 11.2721 1.46418 11.4422 1.66667 11.5606L6.33333 14.2593C6.53603 14.3777 6.76595 14.4401 7 14.4401C7.23405 14.4401 7.46397 14.3777 7.66667 14.2593L12.3333 11.5606C12.5358 11.4422 12.704 11.2721 12.821 11.0673C12.938 10.8624 12.9998 10.63 13 10.3934Z" stroke="#212529" stroke-linecap="round" stroke-linejoin="round"/>
</svg>
