<svg width="91" height="34" viewBox="0 0 91 34" fill="none" xmlns="http://www.w3.org/2000/svg">
<path d="M8.0317 20.0741L6.42014 21.8678V23.0891H6.07897L5.40112 24.3645H8.04966C8.91155 24.3645 9.40535 23.8598 9.40535 22.9855C9.40535 22.2238 9.02827 21.7146 8.35491 21.5298L9.62531 20.0741H8.0317V20.0741ZM8.13046 23.0756C8.12148 23.0801 8.08557 23.0936 8.01374 23.0936H6.45605L6.9678 22.8728C7.17878 22.7782 7.4167 22.7331 7.66809 22.7331C8.13046 22.7331 8.13046 22.8773 8.13046 22.99C8.13944 23.0441 8.13046 23.0756 8.13046 23.0756Z" fill="#153032"/>
<path d="M41.4751 26.7801C41.4751 27.8122 41.1115 28.1953 40.1374 28.1953H15.7933C14.8192 28.1953 14.4556 27.8122 14.4556 26.7801V17.2709L12.0674 18.5463V26.69C12.0674 27.9384 11.5691 28.1908 10.7611 28.1908H4.96126C4.13527 28.1908 3.62352 27.9384 3.62352 26.69V22.6474L1.23535 23.9228V26.8297C1.23535 27.9203 1.55407 28.8127 2.18254 29.4752C2.81998 30.1557 3.67739 30.4982 4.72334 30.4982H10.8509C11.9821 30.4982 12.7497 30.1377 13.275 29.687C13.6745 30.0295 14.1593 30.2684 14.7159 30.39V30.4982H40.4292L41.2192 30.4847V30.3855C41.8432 30.2458 42.3774 29.9664 42.8173 29.5473C43.5087 28.8668 43.8633 27.9384 43.8633 26.7937V17.2709L41.4751 18.5463V26.7801Z" fill="#153032"/>
<path d="M86.0063 21.4532C85.0052 21.4532 84.1748 21.7462 83.5328 22.3321C82.8056 23.0036 82.4375 23.95 82.4375 25.1398V26.7757C82.4375 27.8078 82.0739 28.1909 81.0998 28.1909H56.1048V25.1398C56.1048 24.0356 55.7816 23.1388 55.1351 22.4718C54.4842 21.7958 53.6089 21.4532 52.5315 21.4532C51.4003 21.4532 50.471 21.8408 49.7752 22.6025C49.0211 23.4182 48.635 24.5539 48.635 25.987C48.635 28.7948 50.2062 30.3856 53.0522 30.4668C53.2273 30.4758 53.3889 30.4803 53.5415 30.4848C53.4652 30.629 53.3665 30.7642 53.2363 30.8949C52.8457 31.296 52.4058 31.4853 51.8626 31.4853C51.3958 31.4853 50.9199 31.3591 50.4441 31.1112L49.2904 30.5073V33.0266L49.7258 33.2474C50.4261 33.599 51.1758 33.7792 51.9479 33.7792C52.9849 33.7792 53.9096 33.4367 54.6907 32.7652C55.418 32.1433 55.8669 31.3861 56.033 30.5073L82.1816 30.4983V30.4037C82.8101 30.2685 83.2814 29.9981 83.6406 29.6871C84.1658 30.1423 84.9469 30.5073 86.0961 30.5073C87.1914 30.5073 88.0982 30.1243 88.794 29.3626C89.5302 28.5379 89.9073 27.4022 89.9073 25.987C89.9073 24.7522 89.6155 23.7247 89.0364 22.936C88.3361 21.967 87.2902 21.4532 86.0063 21.4532ZM53.7166 28.1863C53.4787 28.1818 53.2857 28.1728 53.1285 28.1593C51.6516 28.0692 51.0232 27.4202 51.0232 25.987C51.0232 25.2254 51.1713 24.644 51.4721 24.2519C51.728 23.9139 52.0602 23.7607 52.536 23.7607C53.1375 23.7607 53.7211 23.8779 53.7211 25.2795V28.1863H53.7166ZM87.0882 27.7176C86.8547 28.0466 86.5674 28.1909 86.1589 28.1909C85.1848 28.1909 84.8212 27.8078 84.8212 26.7757V25.2795C84.8212 23.8779 85.4048 23.7607 86.0063 23.7607C86.4642 23.7607 86.7919 23.9049 87.0388 24.2069C87.353 24.599 87.5146 25.1984 87.5146 25.9825C87.5146 26.7442 87.371 27.3256 87.0882 27.7176Z" fill="#153032"/>
<path d="M3.31835 8.72611C3.32283 8.26642 3.92437 8.09967 4.16229 8.49627L7.27319 13.7737L7.28217 13.7511L7.29115 13.7737L10.4021 8.49627C10.6355 8.09967 11.2415 8.26642 11.246 8.72611L11.2684 12.4577C11.2729 12.8723 11.6096 13.2103 12.0226 13.2103H13.1628C13.5803 13.2103 13.917 12.8723 13.917 12.4532V1.06011C13.917 0.640986 13.5803 0.302979 13.1628 0.302979H11.7218C11.4435 0.302979 11.1921 0.456208 11.0575 0.699573L7.94655 6.48175C7.66374 7.01354 6.90509 7.01354 6.61779 6.48175L3.50689 0.699573C3.3767 0.456208 3.12083 0.302979 2.84251 0.302979H1.40601C0.988534 0.302979 0.651855 0.640986 0.651855 1.06011V12.4532C0.651855 12.8723 0.988534 13.2103 1.40601 13.2103H2.54623C2.95922 13.2103 3.2959 12.8723 3.30039 12.4577L3.31835 8.72611Z" fill="#153032"/>
<path d="M31.1639 11.5834C31.7969 12.2053 32.5241 12.6875 33.3276 13.0165C34.1267 13.341 34.9841 13.5078 35.8774 13.5078C36.7662 13.5078 37.6281 13.341 38.4272 13.0165C39.2307 12.692 39.9624 12.2098 40.5999 11.5834C41.2283 10.9659 41.7176 10.2494 42.0543 9.45167C42.391 8.65397 42.5616 7.80219 42.5616 6.91887C42.5616 6.02653 42.391 5.17025 42.0588 4.37706C41.7266 3.57936 41.2373 2.85828 40.6044 2.22733C39.9804 1.61441 39.2576 1.1367 38.4541 0.816716C36.8605 0.176757 34.9123 0.176756 33.3187 0.81221C32.5151 1.13219 31.7924 1.60991 31.1684 2.23184C30.5354 2.85828 30.0461 3.58387 29.714 4.37706C29.3818 5.17475 29.2112 6.03104 29.2112 6.91887C29.2112 7.80219 29.3818 8.64947 29.714 9.44266C30.0417 10.2358 30.531 10.9524 31.1639 11.5834ZM32.147 5.3415C32.349 4.85027 32.6498 4.39508 33.0269 4.0075C33.4174 3.61992 33.8618 3.32248 34.3377 3.11967C34.8135 2.92137 35.3297 2.81772 35.8774 2.81772C36.4251 2.81772 36.9503 2.92137 37.4396 3.11967C37.9244 3.31797 38.3598 3.61541 38.7369 3.99849C39.123 4.39508 39.4193 4.84576 39.6213 5.3415C39.8233 5.83274 39.922 6.36454 39.922 6.92338C39.922 7.47771 39.8188 8.00951 39.6168 8.50525C39.4148 9.0055 39.1185 9.45618 38.7414 9.83925C38.3509 10.2268 37.9064 10.5243 37.4216 10.7271C36.443 11.1327 35.2534 11.1237 34.3197 10.7316C33.8484 10.5333 33.4129 10.2358 33.0314 9.84826C32.6453 9.45167 32.3445 9.00099 32.147 8.50976C31.945 8.01852 31.8462 7.48221 31.8462 6.92788C31.8462 6.36003 31.945 5.82823 32.147 5.3415Z" fill="#153032"/>
<path d="M64.3335 10.6866H61.9094C61.4919 10.6866 61.1552 10.3486 61.1552 9.92943V1.18181C61.1552 0.852814 60.8904 0.586914 60.5627 0.586914H59.1756C58.8479 0.586914 58.583 0.852814 58.583 1.18181V12.4577C58.583 12.8768 58.9197 13.2149 59.3372 13.2149H64.338C64.6657 13.2149 64.9305 12.949 64.9305 12.62V11.286C64.926 10.9525 64.6612 10.6866 64.3335 10.6866Z" fill="#153032"/>
<path d="M82.9002 8.86583L86.6171 12.967C86.7608 13.1247 86.9628 13.2149 87.1738 13.2149H90.4822L84.7811 7.20284C84.4983 6.90539 84.5028 6.43669 84.7901 6.14826L90.2847 0.586914H87.066C86.8595 0.586914 86.6665 0.672543 86.5229 0.816759L82.8957 4.58892V1.18181C82.8957 0.852814 82.6309 0.586914 82.3032 0.586914H80.916C80.5883 0.586914 80.3235 0.852814 80.3235 1.18181V12.6155C80.3235 12.9444 80.5883 13.2103 80.916 13.2103H82.3032C82.6309 13.2103 82.8957 12.9444 82.8957 12.6155V8.86583H82.9002Z" fill="#153032"/>
</svg>
