<svg width="54" height="54" viewBox="0 0 54 54" fill="none" xmlns="http://www.w3.org/2000/svg">
<path d="M53.6519 0H0.806885V54H53.6519V0Z" fill="black"/>
<path d="M51.9103 52.3641H2.54883V1.57739H51.9103V52.3641ZM3.41072 51.4988H51.0484V2.44269H3.41072V51.4988Z" fill="#B54B1D"/>
<path d="M10.2744 10.965C10.2744 21.4928 10.2744 31.7682 10.2744 42.0571C13.9689 41.8498 15.4278 40.9259 15.4772 37.9965C15.6298 29.0506 15.5311 20.1002 15.5311 10.965C13.4437 10.965 11.8905 10.965 10.2744 10.965Z" fill="white"/>
<path d="M25.9769 43.2244C28.3381 34.0937 23.7368 27.8654 20.9357 20.0507C19.6518 28.8974 21.5462 35.8108 25.9769 43.2244Z" fill="white"/>
<path d="M39.6909 10.7756H37.3746L34.5555 17.6169L34.1784 18.5318C32.0955 23.665 30.8161 29.0866 32.2122 35.4547C34.2816 29.9113 36.9077 22.7276 38.8335 17.5583C38.9278 17.324 39.0176 17.0986 39.0939 16.8733V17.5087V37.992C39.0939 40.2814 40.9434 42.1382 43.2148 42.1382H44.1844V10.7756H39.6909Z" fill="white"/>
</svg>
