<svg width="33" height="32" viewBox="0 0 33 32" fill="none" xmlns="http://www.w3.org/2000/svg">
<path d="M32.6713 9.60015C32.6713 9.60015 32.349 7.3939 31.3564 6.42515C30.0996 5.15015 28.6945 5.1439 28.05 5.0689C23.4352 4.7439 16.5064 4.7439 16.5064 4.7439H16.4936C16.4936 4.7439 9.56484 4.7439 4.95 5.0689C4.30547 5.1439 2.90039 5.15015 1.64355 6.42515C0.650977 7.3939 0.335156 9.60015 0.335156 9.60015C0.335156 9.60015 0 12.1939 0 14.7814V17.2064C0 19.7939 0.328711 22.3876 0.328711 22.3876C0.328711 22.3876 0.650976 24.5939 1.63711 25.5626C2.89395 26.8376 4.54395 26.7939 5.27871 26.9314C7.92129 27.1751 16.5 27.2501 16.5 27.2501C16.5 27.2501 23.4352 27.2376 28.05 26.9189C28.6945 26.8439 30.0996 26.8376 31.3564 25.5626C32.349 24.5939 32.6713 22.3876 32.6713 22.3876C32.6713 22.3876 33 19.8001 33 17.2064V14.7814C33 12.1939 32.6713 9.60015 32.6713 9.60015ZM13.0904 20.1501V11.1564L22.0043 15.6689L13.0904 20.1501Z" fill="white"/>
</svg>
